<?xml version="1.0" encoding="utf-8"?>
<!-- Generator: Adobe Illustrator 25.2.1, SVG Export Plug-In . SVG Version: 6.00 Build 0)  -->
<svg version="1.1" id="Camada_1" xmlns="http://www.w3.org/2000/svg" xmlns:xlink="http://www.w3.org/1999/xlink" x="0px" y="0px"
	 viewBox="0 0 338 112" style="enable-background:new 0 0 338 112;" xml:space="preserve">
<style type="text/css">
	.st0{fill:#39B54A;stroke:#000000;stroke-miterlimit:10;}
	.st1{fill:#006837;}
	.st2{fill:#FCD421;}
	.st3{display:none;}
	.st4{display:inline;}
	.st5{display:inline;clip-path:url(#SVGID_2_);}
	.st6{fill:#606063;}
	.st7{fill:url(#SVGID_3_);}
	.st8{fill:none;stroke:#606063;stroke-width:1.381;}
	.st9{fill:none;stroke:#979797;stroke-width:1.381;}
	.st10{fill:none;stroke:url(#SVGID_4_);stroke-width:2.047;}
	.st11{fill:#FFFFFF;filter:url(#Adobe_OpacityMaskFilter);}
	.st12{fill-rule:evenodd;clip-rule:evenodd;}
	.st13{mask:url(#path-8-outside-1_1_);fill:url(#SVGID_5_);}
	.st14{fill:#FFFFFF;filter:url(#Adobe_OpacityMaskFilter_1_);}
	.st15{mask:url(#path-10-outside-2_1_);fill:#612F01;}
	.st16{fill:#FEDC90;}
	.st17{fill:#D1884F;}
	.st18{fill:#FFFFFF;filter:url(#Adobe_OpacityMaskFilter_2_);}
	.st19{mask:url(#path-14-outside-3_1_);fill:#612F01;}
	.st20{opacity:0.5;fill:#8F80BA;enable-background:new    ;}
	.st21{fill:#FFFFFF;stroke:#000000;stroke-miterlimit:10;}
	.st22{fill:#4D4D4D;stroke:#000000;stroke-miterlimit:10;}
	.st23{fill:#808080;stroke:#000000;stroke-miterlimit:10;}
	.st24{fill:#666666;stroke:#000000;stroke-miterlimit:10;}
	.st25{opacity:0.9;fill:#FCD421;stroke:#000000;stroke-miterlimit:10;}
	.st26{fill:#FCDB21;stroke:#000000;stroke-miterlimit:10;}
	.st27{stroke:#000000;stroke-miterlimit:10;}
	.st28{fill:#CCCCCC;stroke:#000000;stroke-miterlimit:10;}
	.st29{fill:#999999;stroke:#000000;stroke-miterlimit:10;}
	.st30{fill:#333333;stroke:#000000;stroke-miterlimit:10;}
	.st31{fill:#FCD421;stroke:#FCB321;stroke-miterlimit:10;}
	.st32{opacity:0.5;fill:#FFD217;enable-background:new    ;}
	.st33{fill:#FCD421;stroke:#000000;stroke-linecap:round;stroke-linejoin:round;stroke-miterlimit:10;}
	.st34{fill:none;stroke:#000000;stroke-width:0.5;stroke-linecap:round;stroke-linejoin:round;stroke-miterlimit:10;}
	.st35{fill:none;stroke:#000000;stroke-linecap:round;stroke-miterlimit:10;}
	.st36{fill:none;stroke:#000000;stroke-width:0.5;stroke-miterlimit:10;}
	.st37{fill:#FCD421;stroke:#000000;stroke-miterlimit:10;}
</style>
<path class="st0" d="M274.5,70.6c-0.8-8.3,7.8-18.6,7.8-18.6c3.8,1.6,8.5,3,8.5,3c-7.6,5.8-6.6,18.1-6.6,18.1
	C279.5,71.4,274.5,70.6,274.5,70.6z"/>
<path class="st0" d="M291.4,41.6c4.1,7.3,3.5,20.1,3.5,20.1c-4.1,0.1-8.3,4.4-8.3,4.4c-1.2-12.1-5.4-22.5-5.4-22.5
	C286.2,43.2,291.4,41.6,291.4,41.6z"/>
<g>
	<path class="st1" d="M290.4,56.5l-0.4-0.9c-0.6,0.2-1.3,0.3-1.8,0.3l0-0.7c0.5,0.1,1.1,0,1.7-0.2c0.8-0.3,1.1-0.9,0.9-1.4
		c-0.2-0.5-0.7-0.6-1.6-0.6c-1.2,0.1-2.1-0.1-2.4-0.9c-0.3-0.8,0.1-1.6,1-2.1l-0.4-0.9l0.7-0.3l0.4,0.9c0.6-0.2,1.1-0.3,1.5-0.2
		l0,0.7c-0.3,0-0.8,0-1.5,0.2c-0.8,0.3-1,0.9-0.8,1.2c0.2,0.5,0.7,0.5,1.7,0.5c1.2-0.1,2,0.2,2.3,1c0.3,0.7,0,1.6-1.1,2.2l0.4,0.9
		L290.4,56.5z"/>
</g>
<path class="st0" d="M281.7,48.1c2.5,7.9-3.9,19.8-3.9,19.8c-4-0.8-8.9-1.2-8.9-1.2c6.8-11,2.8-19,2.8-19
	C276.6,48.3,281.7,48.1,281.7,48.1z"/>
<path class="st0" d="M252.6,60.8c5.9,5.8,19.4,5.5,19.4,5.5c1.2-3.9,3-8.5,3-8.5c-12.9,1.1-18.2-6.2-18.2-6.2
	C255.1,56.4,252.6,60.8,252.6,60.8z"/>
<g>
	<path class="st1" d="M277.9,61.3l0.3-0.9c-0.6-0.2-1.2-0.6-1.5-0.9l0.5-0.5c0.3,0.3,0.8,0.7,1.4,0.9c0.8,0.2,1.4,0,1.6-0.5
		c0.2-0.5-0.2-1-0.9-1.5c-1-0.7-1.5-1.4-1.3-2.2c0.2-0.8,1.1-1.2,2.1-1l0.3-0.9l0.7,0.2l-0.3,0.9c0.6,0.2,1,0.5,1.3,0.8l-0.5,0.5
		c-0.2-0.2-0.6-0.5-1.3-0.8c-0.8-0.3-1.3,0.1-1.4,0.4c-0.2,0.5,0.2,0.9,1,1.5c1,0.7,1.4,1.4,1.1,2.2c-0.2,0.7-1.1,1.2-2.2,1l-0.3,1
		L277.9,61.3z"/>
</g>
<path class="st0" d="M275.4,43.2c-7.9,2.8-13.5,15-13.5,15c3,2.8,6.3,6.4,6.3,6.4c4.7-12,13.6-13.6,13.6-13.6
	C278.3,47.4,275.4,43.2,275.4,43.2z"/>
<path class="st0" d="M289.5,51.9c-0.3,8.3-7.4,19.1-7.4,19.1c-3.5-2.1-9.4-0.5-9.4-0.5c5.3-11,7.1-22,7.1-22
	C284.3,50.6,289.5,51.9,289.5,51.9z"/>
<path class="st0" d="M267,44.4c-6.7,4.9-8.5,18.3-8.5,18.3c3.7,1.8,7.9,4.3,7.9,4.3c1-12.9,8.9-17,8.9-17
	C271,47.5,267,44.4,267,44.4z"/>
<g>
	<path class="st1" d="M263,58l0.5-0.7c-0.5-0.3-0.9-0.8-1.1-1.2l0.5-0.3c0.2,0.4,0.5,0.8,1,1.1c0.6,0.4,1.2,0.4,1.5,0
		c0.3-0.4,0.1-0.8-0.4-1.5c-0.6-0.9-0.9-1.5-0.5-2.1c0.4-0.6,1.2-0.7,2-0.3l0.5-0.7l0.5,0.3l-0.5,0.7c0.5,0.4,0.7,0.7,0.9,1
		l-0.5,0.3c-0.1-0.2-0.3-0.6-0.9-0.9c-0.6-0.4-1.1-0.3-1.3,0c-0.3,0.4-0.1,0.8,0.5,1.5c0.6,0.9,0.8,1.5,0.4,2.2
		c-0.4,0.6-1.2,0.8-2.1,0.3l-0.5,0.7L263,58z"/>
</g>
<path class="st0" d="M250.3,71.5c3.7-12,2.7-22.7,2.7-22.7c3.9,4.6,10.2,2.7,10.2,2.7C260,61.7,262.9,72,262.9,72
	C257.4,70.2,250.3,71.5,250.3,71.5z"/>
<g>
	<path class="st1" d="M281.4,64.7l0.2-0.8c-0.6-0.1-1.1-0.4-1.4-0.7l0.4-0.5c0.3,0.3,0.8,0.5,1.3,0.7c0.7,0.1,1.2-0.1,1.3-0.6
		c0.1-0.5-0.2-0.8-0.9-1.2c-0.9-0.5-1.5-1.1-1.3-1.8c0.1-0.7,0.8-1.1,1.8-1l0.2-0.8l0.6,0.1l-0.2,0.8c0.6,0.1,1,0.4,1.2,0.6
		l-0.4,0.5c-0.2-0.1-0.5-0.4-1.2-0.5c-0.8-0.2-1.1,0.2-1.2,0.5c-0.1,0.4,0.2,0.7,1,1.2c0.9,0.6,1.3,1.1,1.2,1.9
		c-0.1,0.7-0.8,1.2-1.8,1.1l-0.2,0.9L281.4,64.7z"/>
</g>
<g>
	<path class="st1" d="M254.2,61.7l0.1-0.9c-0.6-0.1-1.2-0.3-1.5-0.5l0.3-0.5c0.3,0.2,0.8,0.5,1.4,0.5c0.7,0.1,1.2-0.2,1.3-0.7
		c0-0.5-0.3-0.8-1-1.1c-1-0.4-1.6-0.9-1.5-1.6c0.1-0.7,0.7-1.2,1.6-1.2l0.1-0.9l0.6,0.1l-0.1,0.8c0.6,0.1,1,0.3,1.3,0.4l-0.3,0.5
		c-0.2-0.1-0.6-0.4-1.2-0.4c-0.8-0.1-1.1,0.3-1.1,0.6c0,0.4,0.3,0.7,1.1,1.1c1,0.5,1.5,1,1.4,1.7c-0.1,0.7-0.7,1.2-1.7,1.3l-0.1,0.9
		L254.2,61.7z"/>
</g>
<path class="st2" d="M270,60.8l-20.2,8.8L249,94l2.7,7.4l44.6,6.2h5.2l2.8-2.6v-2.5c0,0-4.5-2.2-4.8-4.5c0-0.3,0.3-1.1,0.3-1.1
	L299.6,75l-2.1-8.6L270,60.8z"/>
<g class="st3">
	<defs>
		<rect id="SVGID_1_" y="0" width="168.9" height="111.7"/>
	</defs>
	<clipPath id="SVGID_2_" class="st4">
		<use xlink:href="#SVGID_1_"  style="overflow:visible;"/>
	</clipPath>
	<g class="st5">
		<ellipse transform="matrix(0.4956 -0.8686 0.8686 0.4956 -47.4503 95.3999)" class="st6" cx="58.4" cy="88.6" rx="14" ry="29.5"/>
		<path class="st6" d="M80.8,106.1l11.8-7.2L32.1,64.4L32,78.3L80.8,106.1z"/>
		<path class="st6" d="M35,67.5L6,51c-0.7-0.4-1.6-0.1-1.9,0.6l-1.6,3.2c-0.8,1.6-0.3,3.6,1.3,4.5l30,18.1L35,67.5z"/>
		
			<linearGradient id="SVGID_3_" gradientUnits="userSpaceOnUse" x1="-1120.6268" y1="411.207" x2="-1120.6268" y2="378.641" gradientTransform="matrix(-0.8686 -0.4956 0.4956 -0.8686 -1113.0834 -119.5054)">
			<stop  offset="0" style="stop-color:#404042"/>
			<stop  offset="1" style="stop-color:#48484B"/>
		</linearGradient>
		<path class="st7" d="M72.1,64.5C55,54.8,37.6,53.2,33.1,61s5.8,22,22.8,31.8s34.5,11.3,39,3.5C99.4,88.5,89.2,74.3,72.1,64.5z"/>
		<path class="st8" d="M84.9,100.7c1-6.9-7-17.1-19.6-24.3c-12.5-7.1-25.4-8.8-30.9-4.5"/>
		<path class="st9" d="M33.7,61.4c-2,3.5-0.8,8.7,3.3,14.4c4.1,5.7,10.8,11.6,19.3,16.4c8.5,4.8,17,7.6,23.9,8.2
			c7,0.6,12.1-1,14.1-4.5c2-3.5,0.8-8.7-3.3-14.4C87,75.9,80.2,70,71.8,65.1s-17-7.6-23.9-8.2C40.8,56.3,35.7,57.9,33.7,61.4z"/>
		
			<linearGradient id="SVGID_4_" gradientUnits="userSpaceOnUse" x1="33.456" y1="48.09" x2="28.171" y2="38.952" gradientTransform="matrix(1 0 0 -1 0 114)">
			<stop  offset="0" style="stop-color:#404042"/>
			<stop  offset="1" style="stop-color:#48484B"/>
		</linearGradient>
		<path class="st10" d="M30.9,64.4l-0.2,12.1"/>
		<defs>
			<filter id="Adobe_OpacityMaskFilter" filterUnits="userSpaceOnUse" x="0.1" y="48.7" width="98" height="60.9">
				<feColorMatrix  type="matrix" values="1 0 0 0 0  0 1 0 0 0  0 0 1 0 0  0 0 0 1 0"/>
			</filter>
		</defs>
		<mask maskUnits="userSpaceOnUse" x="0.1" y="48.7" width="98" height="60.9" id="path-8-outside-1_1_">
			<rect x="-4.7" y="47.3" class="st11" width="106.2" height="65"/>
			<path class="st12" d="M51.5,100.7C39,93.6,31,83.5,31.9,76.6c0-0.2-0.1-0.5-0.3-0.6L3.8,59.2c-1.6-0.9-2.1-2.9-1.3-4.5l1.6-3.2
				c0.4-0.7,1.2-1,1.9-0.6l25.8,14.7c0.1,0.1,0.2,0,0.2-0.1c0-0.3,0-0.5,0-0.8l0-0.3c0,0,0,0,0,0c0,0,0,0,0,0c0.1-1.2,0.4-2.3,1-3.3
				c4.5-7.8,21.9-6.2,39,3.5c17.1,9.7,27.3,24,22.8,31.8c-0.6,1-1.4,1.9-2.4,2.6c0,0,0,0,0,0c0,0,0,0,0,0l-0.5,0.3
				c-0.1,0-0.1,0.1-0.2,0.1l-9.7,6C76.8,109.5,63.9,107.8,51.5,100.7z"/>
		</mask>
		
			<linearGradient id="SVGID_5_" gradientUnits="userSpaceOnUse" x1="50.6599" y1="59.6018" x2="46.5669" y2="8.5018" gradientTransform="matrix(1 0 0 -1 0 114)">
			<stop  offset="0" style="stop-color:#404042"/>
			<stop  offset="1" style="stop-color:#48484B"/>
		</linearGradient>
		<path class="st13" d="M51.5,100.7l-1,1.8L51.5,100.7z M3.8,59.2l1.1-1.8l0,0L3.8,59.2z M2.5,54.7l1.8,0.9l0,0L2.5,54.7z M4.1,51.5
			l-1.8-0.9l0,0L4.1,51.5z M6,51l-1,1.8L6,51z M32.1,64.7l2,0.1l0,0l0,0L32.1,64.7z M33.1,61l1.8,1l0,0L33.1,61z M72.1,64.5l-1,1.8
			L72.1,64.5z M95,96.3l-1.8-1l0,0L95,96.3z M92.1,99.2l-1.1-1.7l0,0l0,0L92.1,99.2z M92,99.3l-1.1-1.8l0,0l0,0L92,99.3z
			 M82.3,105.3l-1.1-1.7l-0.1,0.1l-0.1,0.1L82.3,105.3z M92.6,98.9l1.1,1.7L92.6,98.9z M92.6,98.9l-1.2-1.7L92.6,98.9z M32.1,64.4
			l2,0L32.1,64.4z M31.8,65.7l-1,1.8L31.8,65.7z M32.1,64.4l-2-0.2L32.1,64.4z M31.9,76.6l-2-0.2L31.9,76.6z M31.6,76l1.1-1.8
			L31.6,76z M29.9,76.3c-0.5,4.3,1.7,9.1,5.2,13.5c3.6,4.5,8.9,9,15.4,12.6l2-3.6c-6-3.4-10.9-7.6-14.2-11.6
			c-3.3-4.1-4.7-7.8-4.4-10.5L29.9,76.3z M2.7,61l27.8,16.8l2.1-3.5L4.8,57.5L2.7,61z M0.7,53.8c-1.3,2.6-0.4,5.7,2.1,7.2l2.1-3.5
			c-0.6-0.4-0.9-1.2-0.5-1.8L0.7,53.8z M2.3,50.6l-1.6,3.2l3.6,1.9l1.6-3.2L2.3,50.6z M7,49.2c-1.7-1-3.9-0.3-4.8,1.4l3.6,1.9
			c-0.2,0.3-0.6,0.5-0.9,0.3L7,49.2z M32.9,63.9L7,49.2l-2,3.6l25.8,14.7L32.9,63.9z M30,64.6c0,0.3,0,0.6,0,1l4.1-0.1
			c0-0.2,0-0.4,0-0.6L30,64.6z M30,64.4l0,0.3l4.1,0l0-0.3L30,64.4z M31.3,60c-0.7,1.3-1.1,2.7-1.3,4.2l4.1,0.3
			c0.1-0.9,0.3-1.8,0.7-2.5L31.3,60z M73.1,62.8c-8.7-5-17.6-7.9-25.1-8.6C40.9,53.5,34.2,55,31.3,60l3.6,2
			c1.6-2.8,5.9-4.4,12.8-3.8c6.7,0.6,15.1,3.3,23.4,8.1L73.1,62.8z M96.7,97.3c2.9-5,0.8-11.5-3.5-17.4c-4.3-6-11.4-12.2-20.1-17.2
			l-2,3.6c8.3,4.8,14.9,10.6,18.9,16c4,5.6,4.8,10.2,3.2,13L96.7,97.3z M93.8,100.6c1.2-0.9,2.2-1.9,3-3.2l-3.6-2
			c-0.4,0.7-1,1.4-1.8,1.9L93.8,100.6z M93.2,100.9l0.5-0.3l-2.1-3.5l-0.5,0.3L93.2,100.9z M93,101.1c0.1,0,0.1-0.1,0.2-0.1
			l-2.2-3.5c0,0-0.1,0.1-0.1,0.1L93,101.1z M83.3,107l9.7-6l-2.1-3.5l-9.7,6L83.3,107z M50.5,102.5c6.4,3.7,13,6,18.7,6.8
			c5.6,0.8,10.9,0.2,14.3-2.4l-2.5-3.2c-2.1,1.6-6,2.3-11.2,1.6c-5.2-0.7-11.2-2.8-17.3-6.3L50.5,102.5z M91.6,100.7
			c-1.3-0.8-1.4-2.7-0.1-3.5l2.1,3.5c1.3-0.8,1.3-2.8-0.1-3.5L91.6,100.7z M91.4,97.2c-1.2,0.9-1.1,2.7,0.2,3.5l2-3.6
			c1.3,0.7,1.4,2.6,0.2,3.4L91.4,97.2z M34.1,64.4c0,1.6-1.7,2.5-3.1,1.8l2-3.6c-1.4-0.8-3.1,0.2-3.1,1.8L34.1,64.4z M30.8,67.5
			c1.5,0.8,3.3-0.2,3.3-1.9l-4.1,0c0-1.4,1.6-2.3,2.8-1.6L30.8,67.5z M31.1,66.2c1.3,0.7,2.9-0.1,3.1-1.6l-4.1-0.3
			c0.1-1.5,1.7-2.3,3-1.6L31.1,66.2z M33.9,76.8c0.1-1-0.3-2-1.3-2.6l-2.1,3.5c-0.5-0.3-0.8-0.9-0.7-1.4L33.9,76.8z"/>
		<defs>
			<filter id="Adobe_OpacityMaskFilter_1_" filterUnits="userSpaceOnUse" x="69.1" y="35.4" width="44" height="44">
				<feColorMatrix  type="matrix" values="1 0 0 0 0  0 1 0 0 0  0 0 1 0 0  0 0 0 1 0"/>
			</filter>
		</defs>
		<mask maskUnits="userSpaceOnUse" x="69.1" y="35.4" width="44" height="44" id="path-10-outside-2_1_">
			<rect x="60" y="26.2" class="st14" width="62.2" height="62.2"/>
			<path class="st12" d="M73.9,72.1C73.9,72.1,73.9,72.1,73.9,72.1c-5.4-5.4-2.6-16.9,6.2-25.7c8.8-8.8,20.3-11.6,25.7-6.2
				c0,0,0,0,0,0l2.5,2.5c5.4,5.4,2.6,16.9-6.2,25.7c-8.8,8.8-20.3,11.6-25.7,6.2L73.9,72.1L73.9,72.1z"/>
		</mask>
		<path class="st15" d="M73.9,72.1l1.5-1.5l1.5,1.5l-1.5,1.5L73.9,72.1z M105.8,40.2l-1.5,1.5l0,0L105.8,40.2z M76.3,74.6l-1.5,1.5
			L76.3,74.6z M73.9,72.1l-1.5,1.5L71,72.1l1.5-1.5L73.9,72.1z M75.3,70.7L75.3,70.7L75.3,70.7L75.3,70.7L75.3,70.7L75.3,70.7
			L75.3,70.7L75.3,70.7L75.3,70.7L75.3,70.7L75.3,70.7L75.3,70.7L75.3,70.7L75.3,70.7L75.3,70.7L75.3,70.7L75.3,70.7L75.3,70.7
			L75.3,70.7L75.3,70.7L75.3,70.7L75.3,70.7L75.3,70.7L75.3,70.7L75.3,70.7L75.3,70.7L75.3,70.7L75.3,70.7L75.3,70.7L75.3,70.7
			L75.3,70.7L75.3,70.7L75.3,70.7L75.3,70.7L75.3,70.7L75.3,70.7L75.3,70.7L75.3,70.7L75.3,70.7L75.3,70.7L75.3,70.7L75.3,70.7
			L75.3,70.7L75.3,70.7L75.3,70.7L75.3,70.7L75.3,70.7L75.3,70.7L75.3,70.7L75.3,70.7L75.3,70.7L75.3,70.7L75.3,70.7L75.3,70.7
			L75.3,70.7L75.3,70.7L75.3,70.7L75.3,70.7L75.3,70.7L75.3,70.7L75.3,70.7L75.3,70.7L75.3,70.7L75.3,70.7L75.3,70.7L75.3,70.7
			L75.3,70.7L75.3,70.7L75.3,70.7L75.3,70.7L75.3,70.7L75.3,70.7L75.3,70.7L75.3,70.7L75.3,70.7L75.3,70.7L75.3,70.7L75.3,70.7
			L75.3,70.7L75.3,70.7L75.3,70.7L75.3,70.7L75.3,70.7L75.3,70.7L75.3,70.7L75.3,70.7L75.3,70.7L75.3,70.7L75.3,70.7L75.3,70.7
			L75.3,70.7L75.3,70.7L75.3,70.7L75.3,70.7L75.3,70.7L75.3,70.7L75.3,70.7L75.3,70.7L75.3,70.7L75.3,70.7L75.3,70.7L75.3,70.7
			L75.3,70.7L75.3,70.7L75.3,70.7L75.3,70.7L75.3,70.7L75.3,70.7L75.3,70.7L75.3,70.7L75.3,70.7L75.3,70.7L75.3,70.7L75.3,70.7
			L75.3,70.7L75.3,70.7L75.3,70.7L75.3,70.7L75.3,70.7L75.3,70.7L75.3,70.7L75.3,70.7L75.3,70.7L75.3,70.7L75.3,70.7L75.3,70.7
			L75.3,70.7L75.3,70.7L75.3,70.7L75.3,70.7L75.3,70.7L75.3,70.7L75.3,70.7L75.3,70.7L75.3,70.7L75.3,70.7L75.3,70.7L75.3,70.7
			L75.3,70.7L75.3,70.7L75.3,70.7L75.3,70.7L75.3,70.7L75.3,70.7L75.3,70.7L75.3,70.7L75.3,70.7L75.3,70.7L75.3,70.7L75.3,70.7
			L75.3,70.7L75.3,70.7L75.3,70.7L75.3,70.7L75.3,70.7L75.3,70.7L75.3,70.7L75.3,70.7L75.3,70.7L75.3,70.7L75.3,70.7L75.3,70.7
			L75.3,70.7L75.3,70.7L75.3,70.7L75.3,70.7L75.3,70.7L75.3,70.7L75.3,70.7L75.3,70.7L75.3,70.7L75.3,70.7l-2.9,2.9l0,0l0,0l0,0l0,0
			l0,0l0,0l0,0l0,0l0,0l0,0l0,0l0,0l0,0l0,0l0,0l0,0l0,0l0,0l0,0l0,0l0,0l0,0l0,0l0,0l0,0l0,0l0,0l0,0l0,0l0,0l0,0l0,0l0,0l0,0l0,0
			l0,0l0,0l0,0l0,0l0,0l0,0l0,0l0,0l0,0l0,0l0,0l0,0l0,0l0,0l0,0l0,0l0,0l0,0l0,0l0,0l0,0l0,0l0,0l0,0l0,0l0,0l0,0l0,0l0,0
			c0,0,0,0,0,0l0,0l0,0l0,0l0,0l0,0l0,0l0,0l0,0l0,0l0,0l0,0l0,0l0,0l0,0l0,0l0,0l0,0l0,0l0,0l0,0l0,0l0,0c0,0,0,0,0,0l0,0l0,0l0,0
			l0,0l0,0l0,0l0,0l0,0l0,0l0,0l0,0l0,0l0,0l0,0l0,0l0,0l0,0l0,0l0,0l0,0l0,0l0,0l0,0l0,0l0,0l0,0l0,0l0,0l0,0l0,0l0,0l0,0l0,0l0,0
			l0,0l0,0l0,0l0,0l0,0l0,0l0,0l0,0l0,0l0,0l0,0l0,0l0,0l0,0l0,0l0,0l0,0l0,0l0,0l0,0l0,0l0,0l0,0l0,0l0,0l0,0l0,0l0,0l0,0l0,0l0,0
			l0,0l0,0l0,0l0,0l0,0l0,0l0,0l0,0l0,0l0,0l0,0l0,0l0,0l0,0l0,0l0,0l0,0l0,0L75.3,70.7z M81.5,47.9c-4.2,4.2-6.9,8.9-7.9,13.2
			c-1,4.3-0.3,7.6,1.7,9.6l-2.9,2.9c-3.4-3.4-4-8.5-2.8-13.5c1.2-5.1,4.3-10.5,9-15.1L81.5,47.9z M104.3,41.7c-2-2-5.4-2.7-9.6-1.7
			c-4.2,1-9,3.7-13.2,7.9L78.6,45c4.6-4.6,10-7.7,15.1-9c5-1.2,10.1-0.6,13.5,2.8L104.3,41.7z M104.3,41.7
			C104.3,41.7,104.3,41.7,104.3,41.7l2.9-2.9c0,0,0,0,0,0L104.3,41.7z M106.8,44.2l-2.5-2.5l2.9-2.9l2.5,2.5L106.8,44.2z
			 M100.6,66.9c4.2-4.2,6.9-8.9,7.9-13.2c1-4.3,0.3-7.6-1.7-9.6l2.9-2.9c3.4,3.4,4,8.5,2.8,13.5c-1.2,5.1-4.3,10.5-9,15.1
			L100.6,66.9z M77.8,73.1c2,2,5.4,2.7,9.6,1.7c4.2-1,9-3.7,13.2-7.9l2.9,2.9c-4.6,4.6-10,7.7-15.1,9c-5,1.2-10.1,0.6-13.5-2.8
			L77.8,73.1z M75.3,70.7l2.5,2.5l-2.9,2.9l-2.5-2.5L75.3,70.7z M75.3,73.6L75.3,73.6l-2.9-2.9l0,0L75.3,73.6z"/>
		<path class="st16" d="M76.3,74.6c5.4,5.4,16.9,2.6,25.7-6.2c8.8-8.8,11.6-20.3,6.2-25.7l-2.5-2.5L73.9,72.1L76.3,74.6z"/>
		<path class="st17" d="M73.9,72.1c5.4,5.4,16.9,2.6,25.7-6.2c8.8-8.8,11.6-20.3,6.2-25.7c-5.4-5.4-16.9-2.6-25.7,6.2
			C71.3,55.2,68.5,66.7,73.9,72.1z"/>
		<defs>
			<filter id="Adobe_OpacityMaskFilter_2_" filterUnits="userSpaceOnUse" x="121.8" y="7.5" width="44" height="44">
				<feColorMatrix  type="matrix" values="1 0 0 0 0  0 1 0 0 0  0 0 1 0 0  0 0 0 1 0"/>
			</filter>
		</defs>
		<mask maskUnits="userSpaceOnUse" x="121.8" y="7.5" width="44" height="44" id="path-14-outside-3_1_">
			<rect x="112.6" y="-1.7" class="st18" width="62.2" height="62.2"/>
			<path class="st12" d="M158.5,46.6C158.5,46.6,158.5,46.6,158.5,46.6c-5.4,5.4-16.9,2.7-25.7-6.1c-8.8-8.8-11.6-20.3-6.2-25.7v0
				l2.5-2.5c5.4-5.4,16.9-2.6,25.7,6.2c8.8,8.8,11.6,20.3,6.2,25.7L158.5,46.6z"/>
		</mask>
		<path class="st19" d="M158.5,46.6l-1.5-1.4l0,0l0,0L158.5,46.6z M126.6,14.8l1.5-1.5l1.5,1.5l-1.5,1.5L126.6,14.8z M126.6,14.8
			l-1.5,1.5l-1.5-1.5l1.5-1.5L126.6,14.8z M157,45.2C157,45.2,157,45.2,157,45.2l3,2.8c0,0,0,0-0.1,0.1L157,45.2z M134.2,39
			c4.2,4.2,8.9,6.9,13.2,7.9c4.3,1,7.6,0.3,9.6-1.7l2.9,2.9c-3.4,3.4-8.5,4-13.5,2.8c-5.1-1.2-10.5-4.3-15.1-9L134.2,39z M128,16.2
			c-2,2-2.7,5.4-1.7,9.6c1,4.2,3.7,9,7.9,13.2l-2.9,2.9c-4.6-4.6-7.7-10-9-15.1c-1.2-5-0.6-10.1,2.8-13.5L128,16.2z M128,13.3
			L128,13.3l-2.9,2.9v0L128,13.3z M130.5,13.7l-2.5,2.5l-2.9-2.9l2.5-2.5L130.5,13.7z M153.3,19.9c-4.2-4.2-8.9-6.9-13.2-7.9
			c-4.3-1-7.6-0.3-9.6,1.7l-2.9-2.9c3.4-3.4,8.5-4,13.5-2.8c5.1,1.2,10.5,4.3,15.1,9L153.3,19.9z M159.5,42.7c2-2,2.7-5.4,1.7-9.6
			c-1-4.2-3.7-9-7.9-13.2l2.9-2.9c4.6,4.6,7.7,10,9,15.1c1.2,5,0.6,10.1-2.8,13.5L159.5,42.7z M157.1,45.1l2.4-2.4l2.9,2.9l-2.4,2.4
			L157.1,45.1z"/>
		<path class="st17" d="M160.9,44.2c5.4-5.4,2.6-16.9-6.2-25.7c-8.8-8.8-20.3-11.6-25.7-6.2l-2.5,2.5l31.9,31.9L160.9,44.2z"/>
		<path class="st16" d="M158.5,46.7c5.4-5.4,2.6-16.9-6.2-25.7c-8.8-8.8-20.3-11.6-25.7-6.2c-5.4,5.4-2.6,16.9,6.2,25.7
			C141.6,49.3,153.1,52,158.5,46.7z"/>
		<path class="st20" d="M40.8,18.5c-0.1-0.9-1.4-0.9-1.5,0l-0.8,5.2c-0.1,0.3-0.3,0.6-0.6,0.6l-5.2,0.8c-0.9,0.1-0.9,1.4,0,1.5
			l5.2,0.8c0.3,0.1,0.6,0.3,0.6,0.6l0.8,5.2c0.1,0.9,1.4,0.9,1.5,0l0.8-5.2c0.1-0.3,0.3-0.6,0.6-0.6l5.2-0.8c0.9-0.1,0.9-1.4,0-1.5
			l-5.2-0.8c-0.3-0.1-0.6-0.3-0.6-0.6L40.8,18.5z"/>
		<path class="st20" d="M153.3,71.5c-0.1-0.9-1.4-0.9-1.5,0l-0.8,5.2c-0.1,0.3-0.3,0.6-0.6,0.6l-5.2,0.8c-0.9,0.1-0.9,1.4,0,1.5
			l5.2,0.8c0.3,0.1,0.6,0.3,0.6,0.6l0.8,5.2c0.1,0.9,1.4,0.9,1.5,0l0.8-5.2c0.1-0.3,0.3-0.6,0.6-0.6l5.2-0.8c0.9-0.1,0.9-1.4,0-1.5
			l-5.2-0.8c-0.3-0.1-0.6-0.3-0.6-0.6L153.3,71.5z"/>
		<path class="st20" d="M71.9,6.1c0.1-0.9,1.4-0.9,1.5,0l0.3,1.7c0.1,0.3,0.3,0.6,0.6,0.6L76,8.7c0.9,0.1,0.9,1.4,0,1.5l-1.7,0.3
			c-0.3,0.1-0.6,0.3-0.6,0.6l-0.3,1.7c-0.1,0.9-1.4,0.9-1.5,0l-0.3-1.7c-0.1-0.3-0.3-0.6-0.6-0.6l-1.7-0.3c-0.9-0.1-0.9-1.4,0-1.5
			L71,8.5c0.3-0.1,0.6-0.3,0.6-0.6L71.9,6.1z"/>
	</g>
</g>
<path class="st0" d="M163.2,48.1c4.1,7.3,3.5,20.1,3.5,20.1c-4.1,0.1-8.3,4.4-8.3,4.4c-1.2-12.1-5.4-22.5-5.4-22.5
	C158,49.7,163.2,48.1,163.2,48.1z"/>
<g>
	<path class="st1" d="M162.2,63l-0.4-0.9c-0.6,0.2-1.3,0.3-1.8,0.3l0-0.7c0.5,0.1,1.1,0,1.7-0.2c0.8-0.3,1.1-0.9,0.9-1.4
		c-0.2-0.5-0.7-0.6-1.6-0.6c-1.2,0.1-2.1-0.1-2.4-0.9c-0.3-0.8,0.1-1.6,1-2.1l-0.4-0.9l0.7-0.3l0.4,0.9c0.6-0.2,1.1-0.3,1.5-0.2
		l0,0.7c-0.3,0-0.8,0-1.5,0.2c-0.8,0.3-1,0.9-0.8,1.2c0.2,0.5,0.7,0.5,1.7,0.5c1.2-0.1,2,0.2,2.3,1c0.3,0.7,0,1.6-1.1,2.2l0.4,0.9
		L162.2,63z"/>
</g>
<path class="st21" d="M31.5,74.6C29.4,79,27,76.8,25.7,76c0,0-4.8,3.8-10.5,0.4c0,0-5.4,4-6.9,3.1C4.7,77.1,8.2,75,8.2,75l4.4-3.2
	c0,0-6.6,0.2-6.9,0C2,69.2,4.9,67,6.1,66.4c1.5-0.6,6.5-0.6,6.5-0.6s-4.1-3.3-5.5-4.5c-2.7-2.4,1.5-5.1,3-4c1.7,1.1,8.1,4.9,8.1,4.9
	s-1.3-2.2-1.6-4.7c0.2-2.5,2.7-3.5,2.7-3.5c5.6-1.1,3.3,5.2,3.3,5.2c1.8,1.5,3,3.2,4.4,6c0,0,4-1,4.8,2.6
	C32.2,69.1,31.5,74.6,31.5,74.6"/>
<path class="st21" d="M20.3,70.7c-6.8-3.4-2-8.5-2-8.5"/>
<path class="st21" d="M27.3,69c0.5-3-0.2-4-0.2-4"/>
<path class="st21" d="M27,72.6c0,0-0.5,2.9-1.2,3.4"/>
<path class="st22" d="M66.8,93.3L39.6,73.8c0,0-4.3-25.6-3.4-25.2c17.1,8.2,29.3,26.5,29.3,26.5L66.8,93.3z"/>
<path class="st22" d="M66.8,93.3c0,0,46.2-11.7,57.2-27.9c2.8-4.2,1.1-20.7,0.6-20.2c-20.3,20.6-59,29.8-59,29.8L66.8,93.3z"/>
<path class="st23" d="M73.5,87.6c0,0,35.8-9.2,46-21.8c0.4-0.4,0.5-9.9,0.2-9.5c-12.4,16.1-46.2,22.5-46.2,22.5L73.5,87.6z"/>
<path class="st24" d="M32,67.5c3.7,3,15.6-1,15.6-1s5.3,0.8,2.9,5.3c-3,5.5-17.8,3.8-18.9,2.9C30.3,73.6,32,67.5,32,67.5z"/>
<path class="st22" d="M65.5,75.1c0,0,34-6.7,59-29.8c0,0-11.4-16.6-23.8-20.5c0,0-38.9,9.2-64.6,23.8C36.2,48.6,53.6,57,65.5,75.1z"
	/>
<path class="st25" d="M68.3,65.9c0,0,30.3-7.7,45.2-21.4c0,0-11.4-16.3-21.9-19.1c0,0-48,12-49.6,19.2C42,44.6,56.3,49.5,68.3,65.9z
	"/>
<ellipse transform="matrix(0.9726 -0.2324 0.2324 0.9726 -6.8506 21.8894)" class="st21" cx="89.5" cy="40" rx="6.2" ry="8.2"/>
<ellipse transform="matrix(0.8844 -0.4667 0.4667 0.8844 -12.7109 40.1417)" class="st21" cx="74.7" cy="45.7" rx="6.9" ry="8.3"/>
<ellipse transform="matrix(0.9726 -0.2324 0.2324 0.9726 -7.2741 21.5634)" class="st26" cx="87.9" cy="41.7" rx="4.2" ry="4.7"/>
<ellipse transform="matrix(0.9726 -0.2324 0.2324 0.9726 -8.7977 18.7556)" class="st26" cx="75.2" cy="46.7" rx="4.2" ry="4.7"/>
<ellipse transform="matrix(0.9726 -0.2324 0.2324 0.9726 -8.4182 18.8463)" class="st27" cx="75.8" cy="45.2" rx="1.9" ry="2.1"/>
<circle class="st21" cx="73.4" cy="48.4" r="1.2"/>
<ellipse transform="matrix(0.9726 -0.2324 0.2324 0.9726 -6.8714 21.6341)" class="st27" cx="88.4" cy="40" rx="1.6" ry="1.8"/>
<circle class="st21" cx="86.2" cy="42.8" r="1.2"/>
<path class="st28" d="M82.3,32.7c0,0,3.9-5.2,9.4-2.7l-0.3-1.7C91.4,28.3,84.6,25.5,82.3,32.7z"/>
<path class="st28" d="M73.9,35.5c0,0-6.3-1.3-8.9,4.2l-0.9-1.5C64.1,38.2,67.3,31.6,73.9,35.5z"/>
<path class="st24" d="M128.1,32.6c1.7,2.1,4.9,5.2,4.9,5.2s-6.6,5.6-8.4,7.5l-4.3-5.5L128.1,32.6"/>
<path class="st21" d="M128.1,32.6c6.1,8.7,8.5,5.2,9.2,3.9c0,0,5.7,1.2,9.2-4.4c0,0,4.4,0.3,5.3-1.3c2.2-3.8-1.3-4.5-1.3-4.5
	l-3.4,0.5c0,0,3.6-0.5,3.9-0.8c1.6-1.5-0.6-6.7-2-6.6c-1.6,0.1-5,2.3-5,2.3c0.1,5.5-8.1,4.8-8.1,4.8c9,0,8.4-4.5,7.5-5.3
	c-1-0.9-4.9-1.2-4.9-1.2s-12.2-3.8-9.9,8.5c0,0-2.4-1-1.5,2.5C127.2,31.4,127.6,31.9,128.1,32.6"/>
<path class="st21" d="M145.7,27.1c0,0-3.7,1.9-4.4-0.8"/>
<path class="st0" d="M145.5,32.1c3.4,3.3,1.8,8.1,1.8,8.1c-3.9-6.1-10.9-0.4-10.9-0.4c0.6-3.7,3-13.3,3-13.3S144.4,31,145.5,32.1z"
	/>
<path class="st21" d="M146.5,32.1c0,0-6.8,0.7-4.3-4.5"/>
<path class="st0" d="M140.1,38.4c-1.6-4.6-8.7-4.1-8.7-4.1c3.6-3.3,4.6-7.7,4.6-7.7l5.5-0.9C141.4,25.6,141.2,41.4,140.1,38.4z"/>
<path class="st0" d="M143.4,20.7c0,0-0.3-14.2,0.2-17.9c0.4-2.4-6.9,1.9-11.2-0.6c-1.8-1,6.1,17.8,6.1,17.8L143.4,20.7z"/>
<path class="st0" d="M135.2,19.7C133,12.1,124.3,7,124.9,7.1c8.8,1.3,10.8-4.3,12-3.6c2.4,1.5,8.6,16.8,4.2,16.8
	C140.2,20.3,135.2,19.7,135.2,19.7z"/>
<path class="st0" d="M141.4,25.6c0,0-0.4,2.2,1.9,2.1l-1.2-0.2c-0.5,0.7-0.8,2.3-0.2,3.2c0.4,0.5,0.7,1,1.8,1.2c0,0-0.9,6.6-0.9,6.4
	c-1.6-4.6-8.7-5.4-8.7-5.4s3.4-2.2,5.3-6.7L141.4,25.6z"/>
<path class="st0" d="M143.4,21.2c0,0,7.5-18.2,5.2-18.7c-0.9-0.2-10.1,2.4-12.7,0.1c-1.6-1.5,5.1,10.7,4.6,17.7
	C140.4,20.2,142.8,20.3,143.4,21.2z"/>
<path class="st0" d="M148,19.6c0,0,8.9-10.3,6.7-10.3c-6.5,0.1-12.4-3.8-12.4-3.8s-2.3,8.7-0.7,14.6c0,0,1.5,0.1,2.3,1.4
	C144,21.6,145.5,20.5,148,19.6z"/>
<path class="st0" d="M148.8,32.1c0,0,6.9,3.9,6.5,4.3c-1.3,1.4-7.2,4.2-8.7,2.6c-1.7-1.8-2.6-3.2-2.8-7
	C143.7,32,145.8,32.4,148.8,32.1z"/>
<line class="st21" x1="128.6" y1="28.5" x2="130.4" y2="31.3"/>
<line class="st21" x1="136.7" y1="36.4" x2="134.1" y2="34.7"/>
<path class="st29" d="M90.8,25.5c0,0-6.2-16-8.8-17.1S34,18.5,32.9,25.9l9.7,17.6C49.1,36,90.8,25.5,90.8,25.5z"/>
<polygon class="st30" points="81.5,28 75.6,14.8 80.2,28.3 "/>
<polygon class="st30" points="68.5,31.9 62.9,19.4 67.2,32.2 "/>
<polygon class="st30" points="54.9,36.7 48.3,24.8 53.4,37.3 "/>
<path class="st0" d="M99.5,93.6C91.6,91,85.7,78.8,85.7,78.8c3-2.8,6.2-6.5,6.2-6.5c4.9,11.9,13.8,13.4,13.8,13.4
	C102.3,89.4,99.5,93.6,99.5,93.6z"/>
<path class="st0" d="M90,75.5c2.5,8-0.7,20.4-0.7,20.4c-4-0.8-9,2.6-9,2.6c4.1-12.8-0.6-23.1-0.6-23.1C84.6,76,90,75.5,90,75.5z"/>
<g>
	<path class="st1" d="M94.8,87.4l-0.4-0.8c-0.5,0.3-1.1,0.4-1.5,0.4l-0.1-0.6c0.4,0,0.9-0.1,1.4-0.3c0.6-0.3,0.9-0.9,0.7-1.3
		c-0.2-0.4-0.7-0.5-1.5-0.4c-1.1,0.2-1.8,0.1-2.1-0.5c-0.3-0.6-0.1-1.4,0.7-1.9l-0.4-0.8l0.5-0.3l0.4,0.7c0.5-0.3,1-0.3,1.3-0.3
		l0,0.6c-0.2,0-0.7,0-1.2,0.3c-0.7,0.4-0.8,0.8-0.6,1.1c0.2,0.4,0.6,0.4,1.6,0.3c1.1-0.2,1.7,0,2.1,0.7c0.3,0.6,0.1,1.4-0.7,2
		l0.4,0.8L94.8,87.4z"/>
</g>
<path class="st0" d="M94.8,74.5c-1.9,8.2,2.1,22.8,2.1,22.8c6.1-2.9,10.3-2.4,10.3-2.4c-2.9-10.4,0.2-20.6,0.2-20.6
	C101.8,76,94.8,74.5,94.8,74.5z"/>
<path class="st0" d="M105.7,68.8c-1.2,8.2,6.9,19,6.9,19c3.9-1.4,8.6-2.6,8.6-2.6c-8.4-9.8-5.7-18.3-5.7-18.3
	C110.7,68.2,105.7,68.8,105.7,68.8z"/>
<path class="st0" d="M120,60.4c7.2,4.1,13.4,15.5,13.4,15.5c-3.5,2.2-4.9,8-4.9,8c-7.3-9.8-16.2-16.6-16.2-16.6
	C116.4,64.4,120,60.4,120,60.4z"/>
<path class="st0" d="M152.6,55.2c2.5,7.9-3.9,19.8-3.9,19.8c-4-0.8-8.9-1.2-8.9-1.2c6.8-11,2.8-19,2.8-19
	C147.5,55.4,152.6,55.2,152.6,55.2z"/>
<path class="st0" d="M102.8,76.8c1.2,8.2,12.2,16.1,12.2,16.1c3.3-2.5,7.5-5,7.5-5C111.6,81,111.7,72,111.7,72
	C107.5,74.7,102.8,76.8,102.8,76.8z"/>
<g>
	<path class="st1" d="M113,86.7l-0.4-0.8c-0.5,0.3-1.1,0.4-1.5,0.4l-0.1-0.6c0.4,0,0.9-0.1,1.4-0.3c0.6-0.3,0.9-0.9,0.7-1.3
		c-0.2-0.4-0.7-0.5-1.5-0.4c-1.1,0.2-1.8,0.1-2.1-0.5c-0.3-0.6-0.1-1.4,0.7-1.9l-0.4-0.8l0.5-0.3l0.4,0.7c0.5-0.3,1-0.3,1.3-0.3
		l0,0.6c-0.2,0-0.7,0-1.2,0.3c-0.7,0.4-0.8,0.8-0.6,1.1c0.2,0.4,0.6,0.4,1.6,0.3c1.1-0.2,1.7,0,2.1,0.7c0.3,0.6,0.1,1.4-0.7,2
		l0.4,0.8L113,86.7z"/>
</g>
<path class="st0" d="M115.7,105c-8.9-8.9-18.8-13-18.8-13c5.9-1.3,7.1-7.8,7.1-7.8c7.6,7.7,18,9.9,18,9.9
	C117.8,98.2,115.7,105,115.7,105z"/>
<g>
	<path class="st1" d="M127.5,73.6l-0.7-0.6c-0.4,0.4-0.9,0.8-1.3,0.9l-0.3-0.6c0.4-0.1,0.8-0.4,1.2-0.9c0.5-0.5,0.5-1.1,0.1-1.4
		c-0.4-0.3-0.8-0.2-1.5,0.2c-0.9,0.6-1.6,0.8-2.2,0.3c-0.5-0.5-0.6-1.3-0.1-2l-0.7-0.6l0.4-0.5l0.6,0.5c0.4-0.4,0.8-0.7,1.1-0.8
		l0.3,0.6c-0.2,0.1-0.6,0.3-1,0.8c-0.5,0.6-0.4,1.1-0.1,1.3c0.3,0.3,0.7,0.1,1.5-0.3c0.9-0.6,1.6-0.7,2.2-0.2
		c0.5,0.4,0.6,1.3,0.1,2.1l0.7,0.6L127.5,73.6z"/>
</g>
<path class="st0" d="M134.9,91.2c-1.9-8.1-11-17.3-11-17.3c-3.1,2.7-9.1,2.3-9.1,2.3c7.3,9.8,11.2,20.2,11.2,20.2
	C130,93.5,134.9,91.2,134.9,91.2z"/>
<path class="st0" d="M121.1,67.9c5.9,5.8,19.4,5.5,19.4,5.5c1.2-3.9,3-8.5,3-8.5c-12.9,1.1-18.2-6.2-18.2-6.2
	C123.6,63.4,121.1,67.9,121.1,67.9z"/>
<path class="st31" d="M44.7,42.3c0,0,14.1,4.7,24,20.3"/>
<g>
	<path class="st1" d="M85.9,89.3l0-0.9c-0.6,0-1.2-0.2-1.6-0.4l0.3-0.6c0.4,0.2,0.9,0.4,1.5,0.4c0.7,0,1.3-0.4,1.3-0.9
		c0-0.5-0.4-0.8-1.2-1.1c-1.1-0.4-1.7-0.8-1.7-1.6c0-0.7,0.6-1.3,1.6-1.4l0-0.9l0.7,0l0,0.9c0.6,0,1.1,0.2,1.4,0.3l-0.3,0.6
		c-0.2-0.1-0.7-0.3-1.3-0.3c-0.8,0-1.1,0.4-1.1,0.8c0,0.5,0.4,0.7,1.3,1c1.1,0.4,1.6,0.9,1.6,1.7c0,0.7-0.6,1.4-1.7,1.5l0,0.9
		L85.9,89.3z"/>
</g>
<g>
	<path class="st1" d="M146.4,68.4l0.3-0.9c-0.6-0.2-1.2-0.6-1.5-0.9l0.5-0.5c0.3,0.3,0.8,0.7,1.4,0.9c0.8,0.2,1.4,0,1.6-0.5
		c0.2-0.5-0.2-1-0.9-1.5c-1-0.7-1.5-1.4-1.3-2.2c0.2-0.8,1.1-1.2,2.1-1l0.3-0.9l0.7,0.2l-0.3,0.9c0.6,0.2,1,0.5,1.3,0.8l-0.5,0.5
		c-0.2-0.2-0.6-0.5-1.3-0.8c-0.8-0.3-1.3,0.1-1.4,0.4c-0.2,0.5,0.2,0.9,1,1.5c1,0.7,1.4,1.4,1.1,2.2c-0.2,0.7-1.1,1.2-2.2,1l-0.3,1
		L146.4,68.4z"/>
</g>
<g>
	<path class="st1" d="M100.9,89l-0.1-1c-0.7,0.1-1.4,0-1.8-0.2l0.2-0.7c0.4,0.2,1.1,0.3,1.7,0.2c0.8-0.1,1.3-0.6,1.2-1.1
		c-0.1-0.5-0.6-0.8-1.4-1c-1.2-0.2-2-0.6-2.1-1.4c-0.1-0.8,0.5-1.5,1.5-1.8l-0.1-1l0.7-0.1l0.1,0.9c0.7-0.1,1.2,0,1.5,0.1l-0.2,0.7
		c-0.3-0.1-0.7-0.2-1.5-0.1c-0.9,0.1-1.1,0.6-1.1,1c0.1,0.5,0.5,0.7,1.6,0.9c1.2,0.2,1.9,0.6,2,1.5c0.1,0.8-0.4,1.6-1.5,1.9l0.1,1
		L100.9,89z"/>
</g>
<g>
	<path class="st1" d="M112.1,96.2l-0.7-0.5c-0.3,0.5-0.8,0.9-1.2,1.1l-0.3-0.5c0.4-0.2,0.8-0.5,1.1-1c0.4-0.6,0.4-1.2,0-1.5
		c-0.4-0.3-0.8-0.1-1.5,0.4c-0.9,0.7-1.5,1-2.1,0.5c-0.6-0.4-0.7-1.2-0.3-2l-0.7-0.5l0.3-0.5l0.7,0.5c0.3-0.5,0.7-0.8,1-0.9l0.3,0.5
		c-0.2,0.1-0.6,0.4-0.9,0.9c-0.4,0.6-0.3,1.1,0,1.3c0.4,0.2,0.8,0.1,1.5-0.5c0.9-0.7,1.5-0.8,2.2-0.4c0.6,0.4,0.8,1.2,0.3,2.1
		l0.7,0.5L112.1,96.2z"/>
</g>
<g>
	<path class="st1" d="M135.8,68.3l-0.9-0.1c-0.1,0.6-0.3,1.1-0.6,1.4l-0.5-0.3c0.3-0.3,0.5-0.8,0.6-1.4c0.1-0.7-0.2-1.2-0.6-1.3
		c-0.5-0.1-0.8,0.3-1.2,1c-0.5,1-1,1.5-1.7,1.4c-0.7-0.1-1.1-0.8-1.1-1.7l-0.9-0.1l0.1-0.6l0.8,0.1c0.1-0.6,0.3-1,0.5-1.2l0.5,0.3
		c-0.1,0.2-0.4,0.6-0.5,1.2c-0.1,0.8,0.2,1.1,0.6,1.2c0.4,0.1,0.7-0.3,1.2-1.1c0.5-1,1-1.4,1.8-1.3c0.7,0.1,1.2,0.8,1.2,1.8l0.9,0.1
		L135.8,68.3z"/>
</g>
<g>
	<path class="st1" d="M127.1,87.3l-0.4-0.8c-0.5,0.3-1.1,0.4-1.5,0.4l-0.1-0.6c0.4,0,0.9-0.1,1.4-0.3c0.6-0.3,0.9-0.9,0.7-1.3
		c-0.2-0.4-0.7-0.5-1.5-0.4c-1.1,0.2-1.8,0.1-2.1-0.5c-0.3-0.6-0.1-1.4,0.7-1.9l-0.4-0.8l0.5-0.3l0.4,0.7c0.5-0.3,1-0.3,1.3-0.3
		l0,0.6c-0.2,0-0.7,0-1.2,0.3c-0.7,0.4-0.8,0.8-0.6,1.1c0.2,0.4,0.6,0.4,1.6,0.3c1.1-0.2,1.7,0,2.1,0.7c0.3,0.6,0.1,1.4-0.7,2
		l0.4,0.8L127.1,87.3z"/>
</g>
<path class="st0" d="M138.3,66.6c4.6,7,1.7,20.1,1.7,20.1c-4.1,0.4-8.9,1.3-8.9,1.3c4.1-8.7-2.6-19-2.6-19
	C133.5,68.2,138.3,66.6,138.3,66.6z"/>
<g>
	<path class="st1" d="M137,80.6l-0.3-0.8c-0.4,0.1-0.9,0.1-1.2,0l0-0.6c0.3,0.1,0.7,0.2,1.1,0c0.5-0.2,0.8-0.6,0.6-1.1
		c-0.1-0.4-0.5-0.6-1.1-0.7c-0.8-0.1-1.4-0.3-1.6-1c-0.2-0.7,0.1-1.3,0.7-1.6l-0.3-0.8l0.4-0.1l0.2,0.8c0.4-0.1,0.8-0.1,1,0l0,0.6
		c-0.2-0.1-0.5-0.1-1,0c-0.6,0.2-0.6,0.6-0.5,0.9c0.1,0.4,0.5,0.6,1.2,0.7c0.8,0.1,1.3,0.4,1.6,1.1c0.2,0.6,0,1.4-0.7,1.7l0.3,0.8
		L137,80.6z"/>
</g>
<path class="st1" d="M147.1,19.2c0,0.2-0.1,0.5-0.2,0.6c-2.1,1-2.8,1.4-2.8,1.4c-0.1-0.2-0.1,0.1-0.1-0.2c0.2-0.7,0.6-1.1,1.4-1.3
	c0.7-0.2,1-0.3,1.1-0.8c0.1-0.3-0.1-0.8-0.6-0.9c-0.5-0.1-0.8,0-1,0.1l-0.1-0.6c0.2-0.1,0.6-0.2,1-0.1l0.2-0.8l0.4,0.1l-0.2,0.8
	C146.9,17.9,147.2,18.6,147.1,19.2z"/>
<path class="st1" d="M138.3,18.6c0.1,0.1,0.2,0.4,0.2,0.5c-0.3,0.7-0.3,0.7-0.3,0.7c-0.2-0.1-0.6-0.1-0.6-0.1c0.3-0.4,0.4-0.6,0.3-1
	c-0.1-0.3-0.4-0.5-0.9-0.2c-0.3,0.2-0.5,0.4-0.6,0.6l-0.4-0.3c0.1-0.2,0.3-0.4,0.6-0.6l-0.3-0.6l0.3-0.2L137,18
	C137.5,17.8,138.1,18,138.3,18.6z"/>
<g>
	<path class="st32" d="M135.3,41.1c-0.1-0.9-1.4-0.9-1.5,0l-0.8,5.3c-0.1,0.3-0.3,0.6-0.7,0.7l-5.3,0.8c-0.9,0.1-0.9,1.4,0,1.5
		l5.3,0.8c0.3,0.1,0.6,0.3,0.7,0.7l0.8,5.3c0.1,0.9,1.4,0.9,1.5,0l0.8-5.3c0.1-0.3,0.3-0.6,0.7-0.7l5.3-0.8c0.9-0.1,0.9-1.4,0-1.5
		l-5.3-0.8c-0.3-0.1-0.6-0.3-0.7-0.7L135.3,41.1z"/>
	<path class="st32" d="M92.5,95.8c-0.1-0.9-1.4-0.9-1.5,0l-0.8,5.3c-0.1,0.3-0.3,0.6-0.7,0.7l-5.3,0.8c-0.9,0.1-0.9,1.4,0,1.5
		l5.3,0.8c0.3,0.1,0.6,0.3,0.7,0.7l0.8,5.3c0.1,0.9,1.4,0.9,1.5,0l0.8-5.3c0.1-0.3,0.3-0.6,0.7-0.7l5.3-0.8c0.9-0.1,0.9-1.4,0-1.5
		l-5.3-0.8c-0.3-0.1-0.6-0.3-0.7-0.7L92.5,95.8z"/>
	<path class="st32" d="M111.9,6.2c0.1-0.9,1.4-0.9,1.5,0l0.3,1.7c0.1,0.3,0.3,0.6,0.7,0.7l1.7,0.3c0.9,0.1,0.9,1.4,0,1.5l-1.7,0.3
		c-0.3,0.1-0.6,0.3-0.7,0.7l-0.3,1.7c-0.1,0.9-1.4,0.9-1.5,0l-0.3-1.7c-0.1-0.3-0.3-0.6-0.7-0.7l-1.7-0.3c-0.9-0.1-0.9-1.4,0-1.5
		l1.7-0.3c0.3-0.1,0.6-0.3,0.7-0.7L111.9,6.2z"/>
</g>
<path class="st0" d="M225.8,25.5c8.3-0.8,19.9,4.9,19.9,4.9c-1.6,3.8,0.7,9.4,0.7,9.4c-11.7-6.6-22.8-4.1-22.8-4.1
	C225.1,30.8,225.8,25.5,225.8,25.5z"/>
<path class="st0" d="M207,25.6c-5.4,6.3-17.6,10.3-17.6,10.3c-1.5-3.8-7-6.2-7-6.2c11-5.4,19.2-12.9,19.2-12.9
	C203.7,21.2,207,25.6,207,25.6z"/>
<g>
	<path class="st1" d="M192.9,29.5l0.7-0.5c-0.4-0.5-0.6-1-0.7-1.4l0.6-0.2c0.1,0.4,0.3,0.9,0.6,1.3c0.5,0.5,1,0.7,1.4,0.4
		c0.4-0.3,0.3-0.8,0.1-1.5c-0.4-1-0.5-1.7,0.1-2.2c0.5-0.5,1.3-0.3,2,0.3l0.7-0.5l0.4,0.5l-0.6,0.5c0.4,0.5,0.5,0.9,0.6,1.2
		l-0.6,0.2c-0.1-0.2-0.2-0.7-0.6-1.2c-0.5-0.6-1-0.6-1.2-0.3c-0.3,0.3-0.3,0.7,0,1.6c0.4,1,0.4,1.7-0.2,2.2
		c-0.5,0.4-1.4,0.4-2.1-0.3l-0.7,0.6L192.9,29.5z"/>
</g>
<g>
	<path class="st1" d="M238.5,32.2l-0.9-0.2c-0.1,0.6-0.4,1.2-0.7,1.5l-0.5-0.4c0.3-0.3,0.6-0.8,0.7-1.4c0.2-0.7-0.1-1.3-0.6-1.4
		c-0.5-0.1-0.9,0.2-1.3,0.9c-0.6,1-1.1,1.5-1.9,1.4c-0.7-0.2-1.2-0.9-1.1-1.9l-0.9-0.2l0.1-0.6l0.9,0.2c0.1-0.6,0.4-1,0.6-1.3
		l0.5,0.4c-0.2,0.2-0.4,0.6-0.6,1.2c-0.2,0.8,0.2,1.2,0.5,1.3c0.5,0.1,0.8-0.2,1.3-1.1c0.6-1,1.2-1.4,1.9-1.3
		c0.7,0.1,1.2,0.9,1.2,1.9l0.9,0.2L238.5,32.2z"/>
</g>
<path class="st33" d="M275.6,60.2c0,0-15.6-3.3-19.1-5c-3.5-1.7-4.3,0.1-4.4,0.6c-0.1,0.5,0.8,1.5,0,4s-2.4,3.9-3.8,5.1
	c-3.2,2.5-1.1,6.6,2.1,6.5c3-0.1,4.1-1.3,6.6-2.4c1-0.5,2.3-1,4-1.4"/>
<path class="st33" d="M256.9,69c9.2,0,9.4,5,16.8,5c5.5,0,13.1-5.9,17.8-5.4"/>
<path class="st33" d="M287.2,69.4c0,0,6.7,4.2,11.6,3.1c4.8-1.2,1.7-6.1,0-7.4c-2.6-2-1-4.2-2.8-7.4c-1.5-2.5-5.9,2.9-7.9,2.1
	c-9.3-3.7-10.2,0.5-16.2,1.6"/>
<path class="st34" d="M263.2,64.8c-1.3-1-4.4-0.2-5.5,0.3c-7.5,3.4-5.1-1.4-5.1-1.4"/>
<path class="st33" d="M250.4,71.5c0,0-8.6,18.7,0.9,28.1"/>
<path class="st33" d="M250,98.1c0,0-8.6,12.4,4.7,8.7c0,0,4.3-1.6,13.7,1.4c9.4,2.9,13.1-0.7,20.8-0.7s11.3,0.3,11.3,0.3"/>
<path class="st35" d="M299.7,97.2c0,0,0.8,3.8,2.8,4.5c2.9,1.1,2.5,5.5-2.1,6.1"/>
<path class="st36" d="M257.7,100.5c0,0,6.8,7.5,24.7,7.9"/>
<path class="st36" d="M255.6,103.7c0,0,6.3,3.2,16.3,5.3"/>
<path class="st34" d="M271.9,67.3c0,0,7.7-6.4,12.3-4.3c4.6,2.1,4.6,3.4,4.6,3.4s-7.2-1.3-11.2,3.2"/>
<path class="st37" d="M298.8,72.4c0,0,6.3,15.7-1.1,29.8c-1,1.8,0.2,0.5-1.3,2.2"/>
</svg>
