<?xml version="1.0" encoding="utf-8"?>
<!-- Generator: Adobe Illustrator 25.2.1, SVG Export Plug-In . SVG Version: 6.00 Build 0)  -->
<svg version="1.1" id="Camada_1" xmlns="http://www.w3.org/2000/svg" xmlns:xlink="http://www.w3.org/1999/xlink" x="0px" y="0px"
	 viewBox="0 0 266 176" style="enable-background:new 0 0 266 176;" xml:space="preserve">
<style type="text/css">
	.st0{display:none;}
	.st1{display:inline;}
	.st2{display:inline;clip-path:url(#SVGID_2_);}
	.st3{fill:#606063;}
	.st4{fill:url(#SVGID_3_);}
	.st5{fill:none;stroke:#606063;stroke-width:2.175;}
	.st6{fill:none;stroke:#979797;stroke-width:2.175;}
	.st7{fill:none;stroke:url(#SVGID_4_);stroke-width:3.225;}
	.st8{fill:#FFFFFF;filter:url(#Adobe_OpacityMaskFilter);}
	.st9{fill-rule:evenodd;clip-rule:evenodd;}
	.st10{mask:url(#path-8-outside-1_1_);fill:url(#SVGID_5_);}
	.st11{fill:#FFFFFF;filter:url(#Adobe_OpacityMaskFilter_1_);}
	.st12{mask:url(#path-10-outside-2_1_);fill:#612F01;}
	.st13{fill:#FEDC90;}
	.st14{fill:#D1884F;}
	.st15{fill:#FFFFFF;filter:url(#Adobe_OpacityMaskFilter_2_);}
	.st16{mask:url(#path-14-outside-3_1_);fill:#612F01;}
	.st17{fill:#39B54A;stroke:#000000;stroke-width:2;stroke-miterlimit:10;}
	.st18{fill:#006837;}
	.st19{fill:#FFFFFF;stroke:#000000;stroke-width:2;stroke-miterlimit:10;}
	.st20{fill:#FFFFFF;stroke:#000000;stroke-width:2;stroke-linecap:round;stroke-linejoin:round;stroke-miterlimit:10;}
	.st21{fill:#4D4D4D;stroke:#000000;stroke-width:2;stroke-linejoin:round;stroke-miterlimit:10;}
	.st22{fill:#808080;stroke:#000000;stroke-width:2;stroke-miterlimit:10;}
	.st23{fill:#666666;stroke:#000000;stroke-width:2;stroke-linecap:round;stroke-linejoin:round;stroke-miterlimit:10;}
	.st24{opacity:0.9;fill:#FCD421;stroke:#000000;stroke-width:2;stroke-miterlimit:10;}
	.st25{fill:#FCDB21;stroke:#000000;stroke-width:2;stroke-miterlimit:10;}
	.st26{stroke:#000000;stroke-miterlimit:10;}
	.st27{fill:#FFFFFF;stroke:#000000;stroke-miterlimit:10;}
	.st28{fill:#CCCCCC;stroke:#000000;stroke-width:2;stroke-miterlimit:10;}
	.st29{fill:#666666;stroke:#000000;stroke-width:2;stroke-miterlimit:10;}
	.st30{fill:#999999;stroke:#000000;stroke-width:2;stroke-miterlimit:10;}
	.st31{fill:#333333;stroke:#000000;stroke-miterlimit:10;}
	.st32{fill:#FCD421;stroke:#FCB321;stroke-miterlimit:10;}
	.st33{opacity:0.5;fill:#FFD217;enable-background:new    ;}
</style>
<g class="st0">
	<defs>
		<rect id="SVGID_1_" width="266" height="176"/>
	</defs>
	<clipPath id="SVGID_2_" class="st1">
		<use xlink:href="#SVGID_1_"  style="overflow:visible;"/>
	</clipPath>
	<g class="st2">
		
			<ellipse transform="matrix(0.4956 -0.8686 0.8686 0.4956 -74.7381 150.2617)" class="st3" cx="92" cy="139.5" rx="22.1" ry="46.5"/>
		<path class="st3" d="M127.3,167.2l18.6-11.4l-95.3-54.4l-0.1,21.9L127.3,167.2z"/>
		<path class="st3" d="M55.2,106.3L9.5,80.3c-1.1-0.6-2.5-0.2-3,0.9l-2.5,5c-1.3,2.5-0.4,5.7,2,7.1l47.3,28.5L55.2,106.3z"/>
		
			<linearGradient id="SVGID_3_" gradientUnits="userSpaceOnUse" x1="-1172.0369" y1="488.8418" x2="-1172.0369" y2="437.5478" gradientTransform="matrix(-0.8686 -0.4956 0.4956 -0.8686 -1159.3838 -32.3018)">
			<stop  offset="0" style="stop-color:#404042"/>
			<stop  offset="1" style="stop-color:#48484B"/>
		</linearGradient>
		<path class="st4" d="M113.6,101.7c-26.9-15.3-54.4-17.8-61.4-5.5s9.1,34.7,36,50.1s54.4,17.8,61.4,5.5
			C156.6,139.4,140.5,117,113.6,101.7z"/>
		<path class="st5" d="M133.7,158.5c1.5-10.9-11.1-27-30.8-38.2c-19.7-11.3-40-13.9-48.6-7.1"/>
		<path class="st6" d="M53.1,96.7c-3.2,5.6-1.2,13.7,5.2,22.7c6.4,8.9,17,18.2,30.4,25.9c13.3,7.6,26.8,12,37.7,13
			c11,1,19-1.5,22.2-7.1c3.2-5.6,1.2-13.7-5.2-22.7c-6.4-8.9-17-18.2-30.4-25.9c-13.3-7.6-26.8-12-37.7-13
			C64.3,88.6,56.3,91.1,53.1,96.7z"/>
		
			<linearGradient id="SVGID_4_" gradientUnits="userSpaceOnUse" x1="52.6941" y1="74.1859" x2="44.3711" y2="59.7939" gradientTransform="matrix(1 0 0 -1 0 178)">
			<stop  offset="0" style="stop-color:#404042"/>
			<stop  offset="1" style="stop-color:#48484B"/>
		</linearGradient>
		<path class="st7" d="M48.7,101.5l-0.4,19"/>
		<defs>
			<filter id="Adobe_OpacityMaskFilter" filterUnits="userSpaceOnUse" x="0.1" y="76.7" width="154.3" height="95.9">
				<feColorMatrix  type="matrix" values="1 0 0 0 0  0 1 0 0 0  0 0 1 0 0  0 0 0 1 0"/>
			</filter>
		</defs>
		<mask maskUnits="userSpaceOnUse" x="0.1" y="76.7" width="154.3" height="95.9" id="path-8-outside-1_1_">
			<rect x="-6.7" y="75.3" class="st8" width="166.5" height="100.5"/>
			<path class="st9" d="M81.1,158.6c-19.6-11.2-32.2-27.1-30.8-38c0-0.4-0.1-0.8-0.4-0.9L6,93.3c-2.4-1.5-3.3-4.6-2-7.1l2.5-5
				c0.6-1.1,1.9-1.5,3-0.9l40.7,23.2c0.2,0.1,0.4,0,0.4-0.2c0-0.4,0-0.9,0-1.3l0-0.5c0,0,0,0,0,0c0,0,0,0,0,0
				c0.2-1.9,0.7-3.7,1.6-5.3c7-12.3,34.5-9.8,61.4,5.5c26.9,15.3,43,37.8,36,50.1c-0.9,1.6-2.2,2.9-3.7,4c0,0,0,0,0,0c0,0,0,0,0,0
				l-0.7,0.4c-0.1,0.1-0.2,0.1-0.3,0.2l-15.3,9.4C120.9,172.5,100.7,169.9,81.1,158.6z"/>
		</mask>
		
			<linearGradient id="SVGID_5_" gradientUnits="userSpaceOnUse" x1="79.7924" y1="92.3196" x2="73.3454" y2="11.8326" gradientTransform="matrix(1 0 0 -1 0 178)">
			<stop  offset="0" style="stop-color:#404042"/>
			<stop  offset="1" style="stop-color:#48484B"/>
		</linearGradient>
		<path class="st10" d="M81.1,158.6l1.6-2.8L81.1,158.6z M6,93.3L4.3,96l0,0L6,93.3z M3.9,86.2l2.9,1.5L3.9,86.2z M6.5,81.2l2.9,1.5
			l0,0L6.5,81.2z M9.5,80.3l1.6-2.8l0,0L9.5,80.3z M50.5,102l3.2,0.2l0-0.1l0-0.1L50.5,102z M52.2,96.1l-2.8-1.6l0,0L52.2,96.1z
			 M113.6,101.7l1.6-2.8L113.6,101.7z M149.6,151.7l-2.8-1.6l0,0L149.6,151.7z M145.1,156.2l-1.7-2.7l0,0l0,0L145.1,156.2z
			 M144.8,156.4l-1.7-2.8l0,0l0,0L144.8,156.4z M129.6,165.8l-1.7-2.7l-0.2,0.1l-0.1,0.1L129.6,165.8z M145.8,155.8l1.7,2.7
			L145.8,155.8z M145.8,155.8l-1.9-2.6L145.8,155.8z M50.5,101.4l-3.2,0L50.5,101.4z M50.1,103.5l1.6-2.8L50.1,103.5z M50.6,101.4
			l3.2,0.3L50.6,101.4z M50.2,120.6l3.2,0.4L50.2,120.6z M49.8,119.7l-1.7,2.8L49.8,119.7z M47,120.2c-0.8,6.7,2.6,14.3,8.3,21.3
			c5.7,7.1,14.1,14.1,24.2,19.9l3.2-5.6c-9.5-5.4-17.2-12-22.4-18.3c-5.2-6.5-7.4-12.3-6.9-16.5L47,120.2z M4.3,96l43.8,26.4
			l3.3-5.5L7.6,90.5L4.3,96z M1.1,84.7c-2.1,4-0.6,9,3.2,11.3l3.3-5.5c-1-0.6-1.4-1.9-0.8-2.9L1.1,84.7z M3.6,79.7l-2.5,5l5.7,2.9
			l2.5-5L3.6,79.7z M11.1,77.5c-2.7-1.5-6.1-0.5-7.5,2.2l5.7,2.9c-0.3,0.5-0.9,0.7-1.5,0.4L11.1,77.5z M51.7,100.7L11.1,77.5
			l-3.2,5.6l40.7,23.2L51.7,100.7z M47.3,101.8c0,0.5,0,1,0,1.5l6.4-0.2c0-0.3,0-0.7,0-1L47.3,101.8z M47.3,101.4l0,0.5l6.4,0l0-0.5
			L47.3,101.4z M49.4,94.6c-1.2,2-1.8,4.3-2,6.6l6.4,0.5c0.1-1.5,0.5-2.8,1.2-3.9L49.4,94.6z M115.2,98.9
			C101.4,91,87.4,86.4,75.7,85.3c-11.4-1-21.8,1.3-26.3,9.2l5.6,3.2c2.5-4.4,9.3-7,20.2-6c10.6,0.9,23.7,5.2,36.8,12.7L115.2,98.9z
			 M152.4,153.3c4.5-7.9,1.2-18.1-5.5-27.4c-6.8-9.5-18-19.2-31.7-27.1l-3.2,5.6c13.1,7.5,23.5,16.6,29.7,25.3
			c6.4,8.9,7.6,16,5.1,20.4L152.4,153.3z M147.7,158.4c1.9-1.4,3.5-3,4.6-5.1l-5.6-3.2c-0.7,1.2-1.6,2.2-2.8,3L147.7,158.4z
			 M146.8,159l0.7-0.4l-3.4-5.5l-0.7,0.4L146.8,159z M143.4,153.5c-0.1,0-0.2,0.1-0.2,0.1l3.3,5.5c0.1-0.1,0.2-0.1,0.4-0.2
			L143.4,153.5z M131.2,168.5l15.3-9.4l-3.4-5.5l-15.3,9.4L131.2,168.5z M79.5,161.4c10.1,5.8,20.5,9.4,29.5,10.7
			c8.9,1.3,17.2,0.4,22.6-3.8l-4-5.1c-3.3,2.6-9.4,3.7-17.7,2.5c-8.1-1.2-17.7-4.5-27.2-9.9L79.5,161.4z M144.2,158.6
			c-2.1-1.2-2.2-4.3-0.1-5.5l3.4,5.5c2.1-1.3,2-4.4-0.1-5.6L144.2,158.6z M144,153.1c-1.9,1.4-1.8,4.3,0.3,5.4l3.2-5.6
			c2.1,1.2,2.2,4.1,0.3,5.4L144,153.1z M53.8,101.4c0,2.5-2.7,4-4.8,2.8l3.2-5.6c-2.1-1.2-4.8,0.3-4.8,2.8L53.8,101.4z M48.5,106.3
			c2.3,1.3,5.2-0.3,5.2-3l-6.4,0c0-2.3,2.5-3.7,4.4-2.6L48.5,106.3z M49,104.2c2.1,1.2,4.6-0.2,4.8-2.5l-6.4-0.5
			c0.2-2.3,2.7-3.7,4.8-2.5L49,104.2z M53.4,121c0.2-1.6-0.5-3.2-2-4.1l-3.3,5.5c-0.8-0.5-1.2-1.4-1.1-2.2L53.4,121z"/>
		<defs>
			<filter id="Adobe_OpacityMaskFilter_1_" filterUnits="userSpaceOnUse" x="108.8" y="55.8" width="69.3" height="69.3">
				<feColorMatrix  type="matrix" values="1 0 0 0 0  0 1 0 0 0  0 0 1 0 0  0 0 0 1 0"/>
			</filter>
		</defs>
		<mask maskUnits="userSpaceOnUse" x="108.8" y="55.8" width="69.3" height="69.3" id="path-10-outside-2_1_">
			<rect x="95.4" y="42.3" class="st11" width="96.2" height="96.2"/>
			<path class="st9" d="M116.3,113.6L116.3,113.6c-8.5-8.5-4.1-26.6,9.8-40.5s32-18.2,40.5-9.8c0,0,0,0,0,0l3.9,3.9
				c8.5,8.5,4.1,26.6-9.8,40.5c-13.9,13.9-32,18.2-40.5,9.8L116.3,113.6z"/>
		</mask>
		<path class="st12" d="M166.6,63.4l-2.3,2.3l0,0L166.6,63.4z M118.6,111.3c0.1,0.1,0.2,0.2,0.2,0.3c0,0,0.1,0.1,0.1,0.1
			c0,0,0,0.1,0.1,0.1c0,0,0,0.1,0,0.1c0,0,0,0,0,0.1c0,0,0,0,0,0c0,0,0,0,0,0s0,0,0,0c0,0,0,0,0,0l0,0l0,0l0,0c0,0,0,0,0,0
			c0,0,0,0,0,0c0,0,0,0,0,0c0,0,0,0,0-0.1c0,0,0,0,0-0.1c0,0,0-0.1-0.1-0.1c0,0-0.1-0.1-0.1-0.1
			C118.8,111.5,118.7,111.4,118.6,111.3l-4.6,4.6c-0.1-0.1-0.2-0.2-0.3-0.3c0,0-0.1-0.1-0.1-0.1c0,0,0-0.1-0.1-0.1c0,0,0-0.1,0-0.1
			c0,0,0,0,0-0.1c0,0,0,0,0,0c0,0,0,0,0,0c0,0,0,0,0,0l0,0c0,0,0,0,0,0l0,0l0,0c0,0,0,0,0,0c0,0,0,0,0,0c0,0,0,0,0,0c0,0,0,0,0,0.1
			c0,0,0,0,0,0.1c0,0,0,0.1,0.1,0.1c0,0,0.1,0.1,0.1,0.1c0.1,0.1,0.1,0.2,0.3,0.3L118.6,111.3z M128.4,75.4
			c-6.6,6.6-10.8,14.1-12.4,20.7c-1.6,6.7-0.5,12,2.6,15.2l-4.6,4.6c-5.3-5.3-6.3-13.3-4.4-21.3c1.9-8,6.8-16.5,14.1-23.8
			L128.4,75.4z M164.3,65.6c-3.1-3.1-8.4-4.3-15.2-2.6c-6.7,1.6-14.1,5.8-20.7,12.4l-4.6-4.6c7.3-7.3,15.8-12.2,23.8-14.1
			c7.9-1.9,15.9-1,21.3,4.4L164.3,65.6z M164.3,65.7C164.3,65.7,164.3,65.7,164.3,65.7l4.6-4.6c0,0,0,0,0,0L164.3,65.7z M168.2,69.6
			l-3.9-3.9l4.6-4.6l3.9,3.9L168.2,69.6z M158.4,105.4c6.6-6.6,10.8-14.1,12.4-20.7c1.6-6.7,0.5-12-2.6-15.2l4.6-4.6
			c5.3,5.3,6.3,13.3,4.4,21.3c-1.9,8-6.8,16.5-14.1,23.8L158.4,105.4z M122.6,115.2c3.1,3.1,8.4,4.3,15.2,2.6
			c6.7-1.6,14.1-5.8,20.7-12.4l4.6,4.6c-7.3,7.3-15.8,12.2-23.8,14.1c-7.9,1.9-15.9,1-21.3-4.4L122.6,115.2z M118.6,111.3l3.9,3.9
			l-4.6,4.6l-3.9-3.9L118.6,111.3z"/>
		<path class="st13" d="M120.3,117.5c8.5,8.5,26.6,4.1,40.5-9.8c13.9-13.9,18.2-32,9.8-40.5l-3.9-3.9l-50.2,50.2L120.3,117.5z"/>
		<path class="st14" d="M116.3,113.6c8.5,8.5,26.6,4.1,40.5-9.8c13.9-13.9,18.2-32,9.8-40.5c-8.5-8.5-26.6-4.1-40.5,9.8
			S107.9,105.1,116.3,113.6z"/>
		<defs>
			<filter id="Adobe_OpacityMaskFilter_2_" filterUnits="userSpaceOnUse" x="191.8" y="11.8" width="69.3" height="69.3">
				<feColorMatrix  type="matrix" values="1 0 0 0 0  0 1 0 0 0  0 0 1 0 0  0 0 0 1 0"/>
			</filter>
		</defs>
		<mask maskUnits="userSpaceOnUse" x="191.8" y="11.8" width="69.3" height="69.3" id="path-14-outside-3_1_">
			<rect x="178.3" y="-1.7" class="st15" width="96.2" height="96.2"/>
			<path class="st9" d="M249.6,73.4C249.6,73.4,249.6,73.5,249.6,73.4c-8.5,8.5-26.7,4.2-40.5-9.7c-13.9-13.9-18.2-32-9.8-40.5v0
				l3.9-3.9c8.5-8.5,26.6-4.1,40.5,9.8c13.9,13.9,18.2,32,9.8,40.5L249.6,73.4z"/>
		</mask>
		<path class="st16" d="M249.6,73.4l-2.3-2.3l0,0l0,0L249.6,73.4z M199.3,23.3l2.3-2.3l2.3,2.3l-2.3,2.3L199.3,23.3z M199.3,23.3
			l-2.3,2.3l-2.3-2.3l2.3-2.3L199.3,23.3z M247.3,71.2C247.3,71.2,247.3,71.2,247.3,71.2l4.7,4.5c0,0-0.1,0.1-0.1,0.1L247.3,71.2z
			 M211.4,61.4c6.6,6.6,14.1,10.8,20.7,12.4c6.7,1.6,12,0.5,15.2-2.6l4.6,4.6c-5.3,5.3-13.3,6.3-21.3,4.4c-8-1.9-16.5-6.8-23.8-14.1
			L211.4,61.4z M201.6,25.6c-3.1,3.1-4.3,8.4-2.6,15.2c1.6,6.7,5.8,14.1,12.4,20.7l-4.6,4.6c-7.3-7.3-12.2-15.8-14.1-23.8
			c-1.9-7.9-1-15.9,4.4-21.3L201.6,25.6z M201.6,21L201.6,21l-4.6,4.6v0L201.6,21z M205.6,21.6l-3.9,3.9l-4.6-4.6l3.9-3.9
			L205.6,21.6z M241.4,31.4c-6.6-6.6-14.1-10.8-20.7-12.4c-6.7-1.6-12-0.5-15.2,2.6l-4.6-4.6c5.3-5.3,13.3-6.3,21.3-4.4
			c8,1.9,16.5,6.8,23.8,14.1L241.4,31.4z M251.2,67.3c3.1-3.1,4.3-8.4,2.6-15.2c-1.6-6.7-5.8-14.1-12.4-20.7l4.6-4.6
			c7.3,7.3,12.2,15.8,14.1,23.8c1.9,7.9,1,15.9-4.4,21.3L251.2,67.3z M247.4,71.1l3.8-3.8l4.6,4.6l-3.8,3.8L247.4,71.1z"/>
		<path class="st14" d="M253.5,69.6c8.5-8.5,4.1-26.6-9.8-40.5c-13.9-13.9-32-18.2-40.5-9.8l-3.9,3.9l50.2,50.2L253.5,69.6z"/>
		<path class="st13" d="M249.6,73.5c8.5-8.5,4.1-26.6-9.8-40.5c-13.9-13.9-32-18.2-40.5-9.8s-4.1,26.6,9.8,40.5
			C223,77.6,241.1,82,249.6,73.5z"/>
	</g>
</g>
<path class="st17" d="M258.6,63.7c6.4,11.4,5.5,31.5,5.5,31.5c-6.4,0.1-13,6.9-13,6.9c-1.9-19-8.4-35.3-8.4-35.3
	C250.5,66.1,258.6,63.7,258.6,63.7z"/>
<g>
	<path class="st18" d="M257.1,90l-0.6-1.4c-1,0.4-2.1,0.5-2.8,0.4l0-1.1c0.7,0.1,1.7,0,2.6-0.4c1.2-0.5,1.7-1.4,1.4-2.2
		c-0.3-0.8-1.2-1-2.6-0.9c-1.9,0.1-3.2-0.1-3.7-1.3c-0.5-1.2,0.1-2.5,1.6-3.3l-0.6-1.4l1-0.4l0.6,1.4c1-0.4,1.8-0.4,2.4-0.4l0,1.1
		c-0.4,0-1.2-0.1-2.3,0.4c-1.3,0.5-1.5,1.4-1.3,1.9c0.3,0.7,1.1,0.9,2.7,0.8c1.9-0.1,3.1,0.3,3.6,1.6c0.5,1.1,0,2.5-1.7,3.5l0.6,1.5
		L257.1,90z"/>
</g>
<path class="st19" d="M44.6,117.6c-3.3,6.8-7.1,3.4-9.1,2.2c0,0-7.5,6-16.4,0.6c0,0-8.4,6.3-10.8,4.8c-5.8-3.7-0.4-7-0.4-7l6.8-5
	c0,0-10.4,0.4-10.9,0c-5.6-4.1-1.1-7.7,0.8-8.5c2.4-1,10.3-0.9,10.3-0.9s-6.5-5.1-8.7-7.1c-4.3-3.8,2.3-7.9,4.8-6.3
	c2.6,1.8,12.7,7.6,12.7,7.6s-2.1-3.4-2.5-7.4c0.4-4,4.2-5.5,4.2-5.5c8.8-1.7,5.2,8.1,5.2,8.1c2.8,2.3,4.7,5,6.9,9.3
	c0,0,6.3-1.5,7.5,4C45.7,108.9,44.6,117.6,44.6,117.6"/>
<path class="st20" d="M27.1,111.4c-10.7-5.2-3.2-13.3-3.2-13.3"/>
<path class="st20" d="M38.1,108.8c0.8-4.7-0.4-6.2-0.4-6.2"/>
<path class="st20" d="M37.5,114.4c0,0-0.8,4.5-1.9,5.3"/>
<path class="st21" d="M99.8,146.7l-42.6-30.5c0,0-6.8-40.1-5.3-39.4c26.8,12.9,45.9,41.4,45.9,41.4L99.8,146.7z"/>
<path class="st21" d="M99.8,146.7c0,0,72.2-18.4,89.5-43.7c4.4-6.5,1.8-32.4,0.9-31.6c-31.7,32.2-92.4,46.7-92.4,46.7L99.8,146.7z"
	/>
<path class="st22" d="M110.3,137.8c0,0,56-14.3,72.1-34c0.6-0.7,0.8-15.5,0.4-14.9c-19.4,25.3-72.3,35.2-72.3,35.2L110.3,137.8z"/>
<path class="st23" d="M45.4,106.5c5.8,4.8,24.4-1.5,24.4-1.5s8.4,1.3,4.5,8.3c-4.6,8.5-27.8,6-29.6,4.5
	C42.6,115.9,45.4,106.5,45.4,106.5z"/>
<path class="st21" d="M97.8,118.2c0,0,53.3-10.5,92.4-46.7c0,0-17.8-26-37.2-32c0,0-60.9,14.4-101.1,37.3
	C51.9,76.8,79.1,89.9,97.8,118.2z"/>
<path class="st24" d="M102.1,103.8c0,0,47.5-12,70.8-33.5c0,0-17.9-25.6-34.3-29.9c0,0-75.1,18.8-77.6,30.1
	C61.1,70.5,83.4,78.3,102.1,103.8z"/>
<ellipse transform="matrix(0.9726 -0.2324 0.2324 0.9726 -11.0222 33.1846)" class="st19" cx="135.4" cy="63.4" rx="9.7" ry="12.8"/>
<ellipse transform="matrix(0.8844 -0.4667 0.4667 0.8844 -20.7832 60.7115)" class="st19" cx="112.2" cy="72.3" rx="10.7" ry="12.9"/>
<ellipse transform="matrix(0.9726 -0.2324 0.2324 0.9726 -11.6852 32.6744)" class="st25" cx="132.9" cy="65.9" rx="6.6" ry="7.4"/>
<ellipse transform="matrix(0.9726 -0.2324 0.2324 0.9726 -14.07 28.2794)" class="st25" cx="113" cy="73.9" rx="6.6" ry="7.4"/>
<ellipse transform="matrix(0.9726 -0.2324 0.2324 0.9726 -13.476 28.4214)" class="st26" cx="113.9" cy="71.4" rx="3" ry="3.3"/>
<circle class="st27" cx="110.2" cy="76.4" r="1.8"/>
<ellipse transform="matrix(0.9726 -0.2324 0.2324 0.9726 -11.0547 32.7851)" class="st26" cx="133.6" cy="63.3" rx="2.5" ry="2.8"/>
<circle class="st27" cx="130.2" cy="67.7" r="1.8"/>
<path class="st28" d="M124.1,51.9c0,0,6.1-8.1,14.7-4.3l-0.4-2.7C138.4,45,127.7,40.6,124.1,51.9z"/>
<path class="st28" d="M110.9,56.4c0,0-9.9-2.1-13.9,6.5l-1.5-2.3C95.5,60.5,100.7,50.2,110.9,56.4z"/>
<path class="st29" d="M195.7,51.7c2.6,3.3,7.6,8.1,7.6,8.1s-10.3,8.8-13.1,11.7l-6.7-8.6L195.7,51.7"/>
<path class="st19" d="M195.7,51.7c9.5,13.7,13.2,8.1,14.4,6.2c0,0,8.9,1.9,14.4-6.9c0,0,6.9,0.4,8.3-2c3.5-6-2-7-2-7l-5.3,0.7
	c0,0,5.6-0.8,6-1.2c2.5-2.4-1-10.5-3.1-10.4c-2.6,0.2-7.9,3.5-7.9,3.5c0.2,8.5-12.6,7.6-12.6,7.6c14.2,0,13.2-7.1,11.7-8.3
	c-1.6-1.3-7.7-1.8-7.7-1.8s-19-6-15.5,13.4c0,0-3.8-1.6-2.3,3.9C194.4,49.8,194.9,50.7,195.7,51.7"/>
<path class="st27" d="M223.4,43.2c0,0-5.8,2.9-6.8-1.2"/>
<path class="st17" d="M223.1,51c5.3,5.2,2.9,12.7,2.9,12.7c-6.2-9.5-17.1-0.6-17.1-0.6c0.9-5.8,4.7-20.8,4.7-20.8
	S221.3,49.3,223.1,51z"/>
<path class="st27" d="M224.6,51c0,0-10.6,1.1-6.7-7.1"/>
<path class="st17" d="M214.5,60.8c-2.6-7.2-13.6-6.4-13.6-6.4c5.6-5.2,7.1-12.1,7.1-12.1l8.5-1.3C216.6,40.9,216.2,65.5,214.5,60.8z
	"/>
<path class="st17" d="M219.7,33.2c0,0-0.5-22.3,0.4-28.1c0.6-3.8-10.8,3-17.5-0.9c-2.8-1.6,9.5,27.8,9.5,27.8L219.7,33.2z"/>
<path class="st17" d="M206.9,31.5c-3.4-11.8-17-19.8-16-19.6c13.8,2,16.9-6.7,18.7-5.6c3.8,2.3,13.4,26.3,6.6,26.2
	C214.8,32.5,206.9,31.5,206.9,31.5z"/>
<path class="st17" d="M216.6,40.9c0,0-0.6,3.5,3,3.4l-1.9-0.3c-0.7,1.1-1.2,3.6-0.2,4.9c0.6,0.8,1.1,1.6,2.8,1.9
	c0,0-1.4,10.3-1.5,10c-2.6-7.3-13.6-8.5-13.6-8.5s5.3-3.5,8.3-10.5L216.6,40.9z"/>
<path class="st17" d="M219.8,33.9c0,0,11.8-28.5,8.1-29.2c-1.5-0.3-15.9,3.7-19.9,0.1c-2.5-2.3,8,16.8,7.1,27.7
	C215.1,32.4,218.8,32.4,219.8,33.9z"/>
<path class="st17" d="M227,31.5c0,0,13.9-16.2,10.4-16.1c-10.2,0.2-19.3-5.9-19.3-5.9s-3.5,13.7-1,22.9c0,0,2.4,0.1,3.6,2.1
	C220.6,34.5,223,32.8,227,31.5z"/>
<path class="st17" d="M228.1,50.9c0,0,10.8,6.2,10.2,6.8c-2.1,2.2-11.3,6.6-13.6,4.1c-2.6-2.9-4-5-4.5-11
	C220.3,50.8,223.6,51.5,228.1,50.9z"/>
<line class="st20" x1="196.6" y1="45.4" x2="199.4" y2="49.7"/>
<line class="st27" x1="209.2" y1="57.7" x2="205.2" y2="55.1"/>
<path class="st30" d="M137.4,40.7c0,0-9.7-25-13.8-26.7c-4.1-1.7-75,15.8-76.8,27.4l15.1,27.5C72.1,57.1,137.4,40.7,137.4,40.7z"/>
<polygon class="st31" points="122.8,44.5 113.6,23.9 120.8,45 "/>
<polygon class="st31" points="102.5,50.7 93.7,31.1 100.5,51.1 "/>
<polygon class="st31" points="81.2,58.1 70.8,39.5 78.9,59 "/>
<path class="st17" d="M151,147.3c-12.4-4.1-21.5-23.2-21.5-23.2c4.7-4.4,9.7-10.2,9.7-10.2c7.7,18.7,21.5,21,21.5,21
	C155.5,140.7,151,147.3,151,147.3z"/>
<path class="st17" d="M136.1,118.9c3.9,12.4-1.1,32-1.1,32c-6.3-1.2-14.1,4.1-14.1,4.1c6.4-20-0.9-36.2-0.9-36.2
	C127.7,119.6,136.1,118.9,136.1,118.9z"/>
<g>
	<path class="st18" d="M143.7,137.5l-0.6-1.2c-0.8,0.4-1.7,0.6-2.4,0.6l-0.1-1c0.6,0,1.5-0.1,2.3-0.5c1-0.5,1.4-1.4,1-2
		c-0.3-0.6-1.1-0.8-2.3-0.6c-1.7,0.3-2.8,0.2-3.4-0.8c-0.5-1-0.1-2.2,1.1-3l-0.6-1.2l0.9-0.5l0.6,1.1c0.8-0.4,1.5-0.5,2-0.5l0.1,1
		c-0.4,0-1.1,0.1-2,0.5c-1.1,0.6-1.2,1.3-0.9,1.8c0.3,0.6,1,0.6,2.4,0.4c1.7-0.3,2.7,0,3.3,1c0.5,0.9,0.2,2.2-1.1,3.2l0.7,1.2
		L143.7,137.5z"/>
</g>
<path class="st17" d="M143.6,117.3c-3,12.9,3.3,35.7,3.3,35.7c9.5-4.5,16.1-3.8,16.1-3.8c-4.6-16.2,0.4-32.2,0.4-32.2
	C154.6,119.7,143.6,117.3,143.6,117.3z"/>
<path class="st17" d="M160.7,108.4c-1.9,12.9,10.9,29.7,10.9,29.7c6.1-2.2,13.4-4,13.4-4c-13.1-15.3-8.9-28.7-8.9-28.7
	C168.6,107.5,160.7,108.4,160.7,108.4z"/>
<path class="st17" d="M183.1,95.3c11.3,6.5,20.9,24.2,20.9,24.2c-5.5,3.4-7.6,12.6-7.6,12.6c-11.4-15.3-25.3-25.9-25.3-25.9
	C177.4,101.5,183.1,95.3,183.1,95.3z"/>
<path class="st17" d="M240.9,83.8c3.9,12.2-6.1,30.5-6.1,30.5c-6.3-1.2-13.9-1.8-13.9-1.8c10.6-16.9,4.3-29.3,4.3-29.3
	C233,84.1,240.9,83.8,240.9,83.8z"/>
<path class="st17" d="M156.2,120.9c2,12.9,19.1,25.2,19.1,25.2c5.1-3.9,11.7-7.8,11.7-7.8c-17.1-10.8-17-24.8-17-24.8
	C163.5,117.6,156.2,120.9,156.2,120.9z"/>
<g>
	<path class="st18" d="M172.2,136.5l-0.6-1.2c-0.8,0.4-1.8,0.6-2.4,0.6l-0.1-1c0.6,0,1.5-0.1,2.3-0.5c1-0.5,1.4-1.4,1-2
		c-0.3-0.6-1.1-0.8-2.3-0.6c-1.7,0.3-2.8,0.2-3.4-0.8c-0.5-1-0.1-2.2,1.1-3l-0.6-1.2l0.9-0.5l0.6,1.1c0.8-0.4,1.5-0.5,2-0.5l0.1,1
		c-0.4,0-1.1,0.1-2,0.5c-1.1,0.6-1.2,1.3-0.9,1.8c0.3,0.6,1,0.6,2.4,0.4c1.7-0.3,2.7,0,3.3,1c0.5,0.9,0.2,2.2-1.1,3.2l0.7,1.2
		L172.2,136.5z"/>
</g>
<path class="st17" d="M176.3,165.1c-13.9-13.9-29.5-20.4-29.5-20.4c9.2-2,11.2-12.2,11.2-12.2c11.9,12,28.2,15.5,28.2,15.5
	C179.7,154.4,176.3,165.1,176.3,165.1z"/>
<g>
	<path class="st18" d="M194.8,115.9l-1-0.9c-0.6,0.7-1.4,1.3-2,1.5l-0.4-0.9c0.6-0.2,1.3-0.7,1.9-1.4c0.7-0.9,0.8-1.8,0.2-2.3
		c-0.6-0.5-1.3-0.3-2.4,0.3c-1.4,0.9-2.5,1.2-3.4,0.5c-0.9-0.7-0.9-2-0.1-3.2l-1-0.9l0.6-0.7l1,0.8c0.6-0.7,1.2-1.1,1.7-1.3l0.4,0.9
		c-0.3,0.1-1,0.5-1.6,1.2c-0.8,0.9-0.6,1.7-0.2,2c0.5,0.4,1.2,0.2,2.4-0.5c1.5-0.9,2.5-1.1,3.4-0.3c0.8,0.7,1,2,0.2,3.4l1.1,0.9
		L194.8,115.9z"/>
</g>
<path class="st17" d="M206.4,143.5c-3-12.7-17.2-27-17.2-27c-4.8,4.3-14.2,3.7-14.2,3.7c11.4,15.3,17.6,31.7,17.6,31.7
	C198.8,147.2,206.4,143.5,206.4,143.5z"/>
<path class="st17" d="M184.8,106.9c9.3,9.1,30.4,8.6,30.4,8.6c1.8-6.2,4.6-13.2,4.6-13.2c-20.1,1.6-28.5-9.6-28.5-9.6
	C188.7,100,184.8,106.9,184.8,106.9z"/>
<path class="st32" d="M65.3,67c0,0,22.1,7.4,37.6,31.8"/>
<g>
	<path class="st18" d="M129.8,140.5l0-1.4c-1,0-1.9-0.3-2.5-0.6l0.4-0.9c0.6,0.3,1.4,0.6,2.4,0.6c1.2,0,2-0.6,2-1.4
		c0-0.8-0.6-1.3-1.9-1.7c-1.7-0.6-2.7-1.2-2.7-2.4c0-1.2,1-2.1,2.5-2.3l0-1.4l1,0l0,1.4c1,0,1.7,0.3,2.1,0.5l-0.4,0.9
		c-0.3-0.2-1-0.5-2.1-0.5c-1.3,0-1.8,0.6-1.8,1.2c0,0.7,0.6,1.1,2,1.6c1.7,0.6,2.6,1.3,2.6,2.6c0,1.1-0.9,2.2-2.6,2.4l0,1.5
		L129.8,140.5z"/>
</g>
<g>
	<path class="st18" d="M231.2,102.5l0.5-1.4c-1-0.3-1.9-0.9-2.4-1.4l0.7-0.8c0.5,0.5,1.3,1.1,2.3,1.4c1.2,0.4,2.2,0.1,2.5-0.8
		c0.3-0.8-0.2-1.5-1.4-2.3c-1.6-1.1-2.4-2.1-2-3.4c0.4-1.2,1.7-1.8,3.3-1.5l0.5-1.4l1.1,0.3l-0.5,1.4c1,0.4,1.6,0.8,2.1,1.2
		l-0.7,0.8c-0.3-0.3-0.9-0.8-2-1.2c-1.3-0.4-2,0.1-2.2,0.7c-0.2,0.7,0.3,1.3,1.6,2.3c1.6,1.2,2.2,2.2,1.8,3.4
		c-0.4,1.1-1.6,1.9-3.5,1.6l-0.5,1.5L231.2,102.5z"/>
</g>
<g>
	<path class="st18" d="M153.2,140.1l-0.2-1.5c-1,0.1-2.1,0-2.8-0.3l0.3-1.1c0.7,0.3,1.7,0.4,2.6,0.3c1.3-0.2,2-0.9,1.9-1.8
		c-0.1-0.8-0.9-1.2-2.3-1.5c-1.9-0.3-3.1-0.9-3.3-2.2c-0.2-1.3,0.7-2.4,2.3-2.8l-0.2-1.5l1.1-0.2l0.2,1.5c1.1-0.1,1.8,0,2.4,0.2
		l-0.3,1.1c-0.4-0.1-1.2-0.4-2.3-0.2c-1.4,0.2-1.8,1-1.7,1.6c0.1,0.8,0.8,1.1,2.5,1.4c1.9,0.4,3,1,3.2,2.4c0.2,1.2-0.6,2.5-2.4,3
		l0.2,1.6L153.2,140.1z"/>
</g>
<g>
	<path class="st18" d="M170.8,151.3l-1.1-0.8c-0.5,0.7-1.2,1.4-1.8,1.7l-0.5-0.8c0.6-0.3,1.2-0.8,1.7-1.5c0.6-0.9,0.6-1.9,0-2.3
		c-0.6-0.4-1.3-0.2-2.3,0.6c-1.3,1-2.4,1.5-3.4,0.9c-0.9-0.6-1.1-1.9-0.5-3.2l-1.1-0.8l0.5-0.8l1.1,0.7c0.5-0.8,1.1-1.2,1.5-1.4
		l0.5,0.8c-0.3,0.2-0.9,0.6-1.5,1.4c-0.7,1-0.4,1.7,0,2c0.6,0.4,1.2,0.1,2.3-0.8c1.4-1,2.4-1.3,3.4-0.7c0.9,0.6,1.2,1.9,0.5,3.3
		l1.2,0.8L170.8,151.3z"/>
</g>
<g>
	<path class="st18" d="M207.8,107.6l-1.3-0.2c-0.2,0.9-0.5,1.8-1,2.3l-0.8-0.5c0.4-0.5,0.8-1.3,0.9-2.1c0.2-1.1-0.2-1.9-1-2
		c-0.7-0.1-1.3,0.4-1.9,1.5c-0.8,1.5-1.5,2.4-2.7,2.2c-1.1-0.2-1.8-1.2-1.7-2.7l-1.3-0.2l0.2-1l1.3,0.2c0.2-0.9,0.5-1.5,0.8-1.9
		l0.8,0.5c-0.2,0.3-0.6,0.9-0.8,1.9c-0.2,1.2,0.3,1.7,0.9,1.8c0.7,0.1,1.1-0.4,1.8-1.7c0.8-1.5,1.6-2.2,2.8-2c1,0.2,1.9,1.2,1.8,2.8
		l1.4,0.2L207.8,107.6z"/>
</g>
<g>
	<path class="st18" d="M194.2,137.4l-0.6-1.2c-0.8,0.4-1.7,0.6-2.4,0.6l-0.1-1c0.6,0,1.5-0.1,2.3-0.5c1-0.5,1.4-1.4,1-2
		c-0.3-0.6-1.1-0.8-2.3-0.6c-1.7,0.3-2.8,0.2-3.4-0.8c-0.5-1-0.1-2.2,1.1-3l-0.6-1.2l0.9-0.5l0.6,1.1c0.8-0.4,1.5-0.5,2-0.5l0.1,1
		c-0.4,0-1.1,0.1-2,0.5c-1.1,0.6-1.2,1.3-0.9,1.8c0.3,0.6,1,0.6,2.4,0.4c1.7-0.3,2.7,0,3.3,1c0.5,0.9,0.2,2.2-1.1,3.2l0.7,1.2
		L194.2,137.4z"/>
</g>
<path class="st17" d="M211.7,105c7.2,10.9,2.7,31.5,2.7,31.5c-6.4,0.6-13.9,2-13.9,2c6.4-13.5-4-29.8-4-29.8
	C204.2,107.5,211.7,105,211.7,105z"/>
<g>
	<path class="st18" d="M209.8,126.8l-0.4-1.3c-0.7,0.2-1.4,0.2-1.9,0l0-0.9c0.5,0.2,1.2,0.2,1.8,0.1c0.8-0.2,1.2-0.9,1-1.7
		c-0.2-0.7-0.8-1-1.7-1.1c-1.3-0.2-2.2-0.5-2.5-1.6c-0.3-1.1,0.1-2.1,1.1-2.6l-0.4-1.3l0.7-0.2l0.4,1.2c0.7-0.2,1.2-0.1,1.6,0l0,0.9
		c-0.3-0.1-0.8-0.2-1.6,0c-0.9,0.3-1,1-0.9,1.5c0.2,0.7,0.7,0.9,1.8,1c1.3,0.2,2.1,0.7,2.5,1.8c0.3,1,0,2.1-1.1,2.7l0.4,1.3
		L209.8,126.8z"/>
</g>
<path class="st18" d="M225.5,30.9c-0.1,0.3-0.1,0.8-0.4,0.9c-3.3,1.5-4.4,2.2-4.4,2.2c-0.1-0.4-0.2,0.2-0.1-0.2c0.2-1.2,1-1.7,2.2-2
	c1.1-0.3,1.6-0.5,1.7-1.2c0.1-0.5-0.1-1.2-1-1.4c-0.7-0.1-1.2,0-1.5,0.2l-0.1-0.9c0.4-0.2,0.9-0.3,1.5-0.2l0.3-1.3l0.7,0.1l-0.3,1.3
	C225.2,28.8,225.7,29.8,225.5,30.9z"/>
<path class="st18" d="M211.8,29.8c0.1,0.2,0.4,0.6,0.3,0.8c-0.5,1.2-0.5,1.2-0.5,1.2c-0.2-0.1-1-0.1-1-0.1c0.5-0.6,0.7-1,0.5-1.5
	c-0.2-0.4-0.7-0.7-1.4-0.4c-0.5,0.3-0.8,0.7-0.9,0.9l-0.6-0.5c0.2-0.3,0.4-0.6,0.9-0.9l-0.5-1l0.5-0.3l0.5,1
	C210.5,28.6,211.4,29,211.8,29.8z"/>
<g>
	<path class="st33" d="M206.4,65.6c-0.2-1.4-2.2-1.4-2.4,0l-1.2,8.2c-0.1,0.5-0.5,0.9-1,1l-8.2,1.2c-1.4,0.2-1.4,2.2,0,2.4l8.2,1.2
		c0.5,0.1,0.9,0.5,1,1l1.2,8.2c0.2,1.4,2.2,1.4,2.4,0l1.2-8.2c0.1-0.5,0.5-0.9,1-1l8.2-1.2c1.4-0.2,1.4-2.2,0-2.4l-8.2-1.2
		c-0.5-0.1-0.9-0.5-1-1L206.4,65.6z"/>
	<path class="st33" d="M139.9,150.7c-0.2-1.4-2.2-1.4-2.4,0l-1.2,8.2c-0.1,0.5-0.5,0.9-1,1l-8.2,1.2c-1.4,0.2-1.4,2.2,0,2.4l8.2,1.2
		c0.5,0.1,0.9,0.5,1,1l1.2,8.2c0.2,1.4,2.2,1.4,2.4,0l1.2-8.2c0.1-0.5,0.5-0.9,1-1l8.2-1.2c1.4-0.2,1.4-2.2,0-2.4l-8.2-1.2
		c-0.5-0.1-0.9-0.5-1-1L139.9,150.7z"/>
	<path class="st33" d="M170.1,11.5c0.2-1.4,2.2-1.4,2.4,0l0.4,2.7c0.1,0.5,0.5,0.9,1,1l2.7,0.4c1.4,0.2,1.4,2.2,0,2.4l-2.7,0.4
		c-0.5,0.1-0.9,0.5-1,1l-0.4,2.7c-0.2,1.4-2.2,1.4-2.4,0l-0.4-2.7c-0.1-0.5-0.5-0.9-1-1L166,18c-1.4-0.2-1.4-2.2,0-2.4l2.7-0.4
		c0.5-0.1,0.9-0.5,1-1L170.1,11.5z"/>
</g>
</svg>
