<?xml version="1.0" encoding="utf-8"?>
<!-- Generator: Adobe Illustrator 25.2.1, SVG Export Plug-In . SVG Version: 6.00 Build 0)  -->
<svg version="1.1" id="Camada_1" xmlns="http://www.w3.org/2000/svg" xmlns:xlink="http://www.w3.org/1999/xlink" x="0px" y="0px"
	 viewBox="0 0 266 176" style="enable-background:new 0 0 266 176;" xml:space="preserve">
<style type="text/css">
	.st0{display:none;}
	.st1{display:inline;}
	.st2{display:inline;opacity:0.5;clip-path:url(#SVGID_2_);fill:#8F80BA;enable-background:new    ;}
	.st3{display:inline;clip-path:url(#SVGID_2_);fill:#FFFFFF;filter:url(#Adobe_OpacityMaskFilter);}
	.st4{display:inline;clip-path:url(#SVGID_2_);fill-rule:evenodd;clip-rule:evenodd;}
	.st5{display:inline;clip-path:url(#SVGID_2_);mask:url(#path-4-outside-1_1_);fill:#606063;}
	.st6{display:inline;clip-path:url(#SVGID_2_);fill:#BDC2C4;}
	.st7{display:inline;clip-path:url(#SVGID_2_);fill:#FAF9FA;}
	.st8{display:inline;clip-path:url(#SVGID_2_);fill:#FFFFFF;filter:url(#Adobe_OpacityMaskFilter_1_);}
	.st9{display:inline;clip-path:url(#SVGID_2_);mask:url(#path-8-outside-2_1_);fill:#612F01;}
	.st10{display:inline;clip-path:url(#SVGID_2_);fill:#FEDC90;}
	.st11{display:inline;clip-path:url(#SVGID_2_);fill:#D1884F;}
	.st12{display:inline;clip-path:url(#SVGID_2_);fill:#FFFFFF;filter:url(#Adobe_OpacityMaskFilter_2_);}
	.st13{display:inline;clip-path:url(#SVGID_2_);mask:url(#path-12-outside-3_1_);fill:#612F01;}
	.st14{display:inline;clip-path:url(#SVGID_2_);fill:#FFFFFF;filter:url(#Adobe_OpacityMaskFilter_3_);}
	.st15{display:inline;clip-path:url(#SVGID_2_);mask:url(#path-16-outside-4_1_);fill:#612F01;}
	.st16{display:inline;clip-path:url(#SVGID_2_);fill:#FFFFFF;filter:url(#Adobe_OpacityMaskFilter_4_);}
	.st17{display:inline;clip-path:url(#SVGID_2_);mask:url(#path-20-outside-5_1_);fill:#612F01;}
	.st18{display:inline;clip-path:url(#SVGID_2_);fill:#FFFFFF;filter:url(#Adobe_OpacityMaskFilter_5_);}
	.st19{display:inline;clip-path:url(#SVGID_2_);mask:url(#path-24-outside-6_1_);fill:#612F01;}
	.st20{fill:#39B54A;stroke:#000000;stroke-miterlimit:10;}
	.st21{fill:#39B54A;stroke:#000000;stroke-width:2;stroke-miterlimit:10;}
	.st22{fill:#006837;}
	.st23{fill:#FCD421;}
	.st24{fill:#FCD421;stroke:#000000;stroke-width:2;stroke-linecap:round;stroke-linejoin:round;stroke-miterlimit:10;}
	.st25{fill:none;stroke:#000000;stroke-width:2;stroke-linecap:round;stroke-linejoin:round;stroke-miterlimit:10;}
	.st26{fill:none;stroke:#000000;stroke-width:2;stroke-linecap:round;stroke-miterlimit:10;}
	.st27{fill:#FCD421;stroke:#000000;stroke-width:2;stroke-miterlimit:10;}
	.st28{opacity:0.5;fill:#D4B900;enable-background:new    ;}
</style>
<g class="st0">
	<defs>
		<rect id="SVGID_1_" width="266" height="176"/>
	</defs>
	<clipPath id="SVGID_2_" class="st1">
		<use xlink:href="#SVGID_1_"  style="overflow:visible;"/>
	</clipPath>
	<path class="st2" d="M209.7,56.9c-0.2-1.4-2.2-1.4-2.4,0l-1.2,8.2c-0.1,0.5-0.5,0.9-1,1l-8.2,1.2c-1.4,0.2-1.4,2.2,0,2.4l8.2,1.2
		c0.5,0.1,0.9,0.5,1,1l1.2,8.2c0.2,1.4,2.2,1.4,2.4,0L211,72c0.1-0.5,0.5-0.9,1-1l8.2-1.2c1.4-0.2,1.4-2.2,0-2.4l-8.2-1.2
		c-0.5-0.1-0.9-0.5-1-1L209.7,56.9z"/>
	<defs>
		<filter id="Adobe_OpacityMaskFilter" filterUnits="userSpaceOnUse" x="133.2" y="113.3" width="93.3" height="62.4">
			<feColorMatrix  type="matrix" values="1 0 0 0 0  0 1 0 0 0  0 0 1 0 0  0 0 0 1 0"/>
		</filter>
	</defs>
	<mask maskUnits="userSpaceOnUse" x="133.2" y="113.3" width="93.3" height="62.4" id="path-4-outside-1_1_" class="st1">
		
			<rect x="132.5" y="112.6" style="clip-path:url(#SVGID_2_);fill:#FFFFFF;filter:url(#Adobe_OpacityMaskFilter);" width="95" height="64"/>
		<path style="clip-path:url(#SVGID_2_);fill-rule:evenodd;clip-rule:evenodd;" d="M223.3,143.1v2.8c0,14.7-19.4,26.5-43.4,26.5
			c-24,0-43.4-11.9-43.4-26.5v-2.9l0,0c0,0,0,0,0,0c0-14.7,19.4-26.5,43.4-26.5C203.9,116.6,223.3,128.4,223.3,143.1
			C223.3,143.1,223.3,143.1,223.3,143.1z"/>
	</mask>
	<path class="st5" d="M223.3,143.1l-3.2,0v0H223.3z M136.5,143.1v-3.2h-3.2v3.2H136.5z M136.5,143.1v3.2h3.2v-3.2H136.5z
		 M220.1,143.1v2.8h6.5v-2.8H220.1z M220.1,146c0,5.8-3.8,11.5-11.2,16c-7.3,4.4-17.5,7.3-29,7.3v6.5c12.5,0,24-3.1,32.4-8.2
		c8.4-5.1,14.3-12.6,14.3-21.5H220.1z M179.9,169.2c-11.5,0-21.7-2.9-29-7.3c-7.3-4.5-11.2-10.2-11.2-16h-6.5
		c0,8.9,5.9,16.4,14.3,21.5c8.4,5.2,19.9,8.2,32.4,8.2V169.2z M139.7,146v-2.9h-6.5v2.9H139.7z M136.5,146.3L136.5,146.3v-6.5l0,0
		V146.3z M139.7,143.1C139.7,143.1,139.7,143.1,139.7,143.1l-6.5,0v0H139.7z M139.7,143.1c0-5.8,3.8-11.5,11.2-16
		c7.3-4.4,17.5-7.3,29-7.3v-6.5c-12.5,0-24,3.1-32.4,8.2c-8.4,5.1-14.3,12.6-14.3,21.5H139.7z M179.9,119.8c11.5,0,21.7,2.9,29,7.3
		c7.3,4.5,11.2,10.2,11.2,16h6.5c0-8.9-5.9-16.4-14.3-21.5c-8.4-5.2-19.9-8.2-32.4-8.2V119.8z M220.1,143.1
		C220.1,143.1,220.1,143.1,220.1,143.1l6.5,0c0,0,0,0,0,0H220.1z"/>
	<path class="st6" d="M223.3,146c0,14.7-19.4,26.5-43.4,26.5c-24,0-43.4-11.9-43.4-26.5v-2.9h86.8V146z"/>
	<path class="st7" d="M223.3,143.1c0,14.7-19.4,26.5-43.4,26.5c-24,0-43.4-11.9-43.4-26.5c0-14.7,19.4-26.5,43.4-26.5
		C203.9,116.6,223.3,128.4,223.3,143.1z"/>
	<defs>
		<filter id="Adobe_OpacityMaskFilter_1_" filterUnits="userSpaceOnUse" x="141.3" y="110.3" width="77.5" height="55.4">
			<feColorMatrix  type="matrix" values="1 0 0 0 0  0 1 0 0 0  0 0 1 0 0  0 0 0 1 0"/>
		</filter>
	</defs>
	<mask maskUnits="userSpaceOnUse" x="141.3" y="110.3" width="77.5" height="55.4" id="path-8-outside-2_1_" class="st1">
		
			<rect x="140.5" y="109.5" style="clip-path:url(#SVGID_2_);fill:#FFFFFF;filter:url(#Adobe_OpacityMaskFilter_1_);" width="79" height="57"/>
		<path style="clip-path:url(#SVGID_2_);fill-rule:evenodd;clip-rule:evenodd;" d="M215.5,135.3c0,0,0-0.1,0-0.1
			c0-12-15.9-21.7-35.5-21.7s-35.5,9.7-35.5,21.7c0,0,0,0,0,0h0v5.5c0,12,15.9,21.7,35.5,21.7c19.6,0,35.5-9.7,35.5-21.7V135.3z"/>
	</mask>
	<path class="st9" d="M215.5,135.3l-3.2,0v0v0H215.5z M144.5,135.2v3.2h3.2l0-3.2L144.5,135.2z M144.5,135.2V132h-3.2v3.2H144.5z
		 M212.3,135.2C212.3,135.2,212.3,135.3,212.3,135.2l6.5,0.1c0,0,0-0.1,0-0.1H212.3z M180,116.7c9.3,0,17.6,2.3,23.4,5.9
		c5.9,3.6,8.9,8.1,8.9,12.6h6.5c0-7.6-5-13.9-12-18.1c-7-4.3-16.5-6.8-26.8-6.8V116.7z M147.8,135.2c0-4.4,3-9,8.9-12.6
		c5.8-3.6,14.1-5.9,23.4-5.9v-6.5c-10.3,0-19.8,2.5-26.8,6.8c-7,4.3-12,10.6-12,18.1H147.8z M147.8,135.2
		C147.8,135.2,147.8,135.2,147.8,135.2l-6.5,0c0,0,0,0,0,0L147.8,135.2z M144.5,138.5L144.5,138.5l0-6.5h0V138.5z M147.8,140.7v-5.5
		h-6.5v5.5H147.8z M180,159.2c-9.3,0-17.6-2.3-23.4-5.9c-5.9-3.6-8.9-8.1-8.9-12.6h-6.5c0,7.6,5,13.9,12,18.1
		c7,4.3,16.5,6.8,26.8,6.8V159.2z M212.3,140.7c0,4.4-3,9-8.8,12.6c-5.8,3.6-14.1,5.9-23.4,5.9v6.5c10.3,0,19.8-2.5,26.8-6.8
		c7-4.3,12-10.6,12-18.1H212.3z M212.3,135.3v5.4h6.5v-5.4H212.3z"/>
	<path class="st10" d="M215.5,140.7c0,12-15.9,21.7-35.5,21.7c-19.6,0-35.5-9.7-35.5-21.7v-5.5h71V140.7z"/>
	<path class="st11" d="M215.5,135.2c0,12-15.9,21.7-35.5,21.7s-35.5-9.7-35.5-21.7c0-12,15.9-21.7,35.5-21.7
		S215.5,123.2,215.5,135.2z"/>
	<defs>
		<filter id="Adobe_OpacityMaskFilter_2_" filterUnits="userSpaceOnUse" x="147.1" y="103.1" width="77.5" height="55.4">
			<feColorMatrix  type="matrix" values="1 0 0 0 0  0 1 0 0 0  0 0 1 0 0  0 0 0 1 0"/>
		</filter>
	</defs>
	<mask maskUnits="userSpaceOnUse" x="147.1" y="103.1" width="77.5" height="55.4" id="path-12-outside-3_1_" class="st1">
		
			<rect x="146.3" y="102.3" style="clip-path:url(#SVGID_2_);fill:#FFFFFF;filter:url(#Adobe_OpacityMaskFilter_2_);" width="79" height="57"/>
		<path style="clip-path:url(#SVGID_2_);fill-rule:evenodd;clip-rule:evenodd;" d="M221.4,128.2c0-0.1,0-0.1,0-0.2
			c0-12-15.9-21.7-35.5-21.7c-19.6,0-35.5,9.7-35.5,21.7h0v5.5c0,12,15.9,21.7,35.5,21.7c19.6,0,35.5-9.7,35.5-21.7V128.2z"/>
	</mask>
	<path class="st13" d="M221.4,128.2l-3.2,0v0v0H221.4z M150.3,128.1v3.2h3.2v-3.2H150.3z M150.3,128.1v-3.2h-3.2v3.2H150.3z
		 M218.1,128.1c0,0,0,0.1,0,0.1l6.5,0.1c0-0.1,0-0.1,0-0.2H218.1z M185.9,109.6c9.3,0,17.6,2.3,23.4,5.9c5.9,3.6,8.8,8.1,8.8,12.6
		h6.5c0-7.6-5-13.9-12-18.1c-7-4.3-16.5-6.8-26.8-6.8V109.6z M153.6,128.1c0-4.4,3-9,8.9-12.6c5.8-3.6,14.1-5.9,23.4-5.9v-6.5
		c-10.3,0-19.8,2.5-26.8,6.8c-7,4.3-12,10.6-12,18.1H153.6z M150.3,131.3L150.3,131.3l0-6.5h0V131.3z M153.6,133.6v-5.5h-6.5v5.5
		H153.6z M185.9,152c-9.3,0-17.6-2.3-23.4-5.9c-5.9-3.6-8.8-8.1-8.8-12.6h-6.5c0,7.6,5,13.9,12,18.1c7,4.3,16.5,6.8,26.8,6.8V152z
		 M218.1,133.6c0,4.4-3,9-8.9,12.6c-5.8,3.6-14.1,5.9-23.4,5.9v6.5c10.3,0,19.8-2.5,26.8-6.8c7-4.3,12-10.6,12-18.1H218.1z
		 M218.1,128.2v5.3h6.5v-5.3H218.1z"/>
	<path class="st10" d="M221.4,133.6c0,12-15.9,21.7-35.5,21.7c-19.6,0-35.5-9.7-35.5-21.7v-5.5h71V133.6z"/>
	<path class="st11" d="M221.4,128.1c0,12-15.9,21.7-35.5,21.7s-35.5-9.7-35.5-21.7s15.9-21.7,35.5-21.7S221.4,116.1,221.4,128.1z"/>
	<defs>
		<filter id="Adobe_OpacityMaskFilter_3_" filterUnits="userSpaceOnUse" x="132.8" y="92.8" width="77.5" height="55.4">
			<feColorMatrix  type="matrix" values="1 0 0 0 0  0 1 0 0 0  0 0 1 0 0  0 0 0 1 0"/>
		</filter>
	</defs>
	<mask maskUnits="userSpaceOnUse" x="132.8" y="92.8" width="77.5" height="55.4" id="path-16-outside-4_1_" class="st1">
		
			<rect x="132" y="92" style="clip-path:url(#SVGID_2_);fill:#FFFFFF;filter:url(#Adobe_OpacityMaskFilter_3_);" width="79" height="57"/>
		<path style="clip-path:url(#SVGID_2_);fill-rule:evenodd;clip-rule:evenodd;" d="M207,117.8c0,0,0-0.1,0-0.1
			c0-12-15.9-21.7-35.5-21.7c-19.6,0-35.5,9.7-35.5,21.7c0,0,0,0,0,0l0,0v5.5c0,12,15.9,21.7,35.5,21.7s35.5-9.7,35.5-21.7V117.8z"
			/>
	</mask>
	<path class="st15" d="M207,117.8l-3.2,0v0v0H207z M136,117.7v3.2h3.2v-3.2H136z M136,117.7v-3.2h-3.2v3.2H136z M203.8,117.7
		C203.8,117.7,203.8,117.8,203.8,117.7l6.5,0.1c0,0,0-0.1,0-0.1H203.8z M171.5,99.2c9.3,0,17.6,2.3,23.4,5.9
		c5.9,3.6,8.8,8.1,8.8,12.6h6.5c0-7.6-5-13.9-12-18.1c-7-4.3-16.5-6.8-26.8-6.8V99.2z M139.2,117.7c0-4.4,3-9,8.9-12.6
		c5.8-3.6,14.1-5.9,23.4-5.9v-6.5c-10.3,0-19.8,2.5-26.8,6.8c-7,4.3-12,10.6-12,18.1H139.2z M139.2,117.7
		C139.2,117.7,139.2,117.7,139.2,117.7l-6.5,0c0,0,0,0,0,0L139.2,117.7z M136,121L136,121v-6.5l0,0V121z M139.2,123.2v-5.5h-6.5v5.5
		H139.2z M171.5,141.7c-9.3,0-17.6-2.3-23.4-5.9c-5.9-3.6-8.8-8.1-8.8-12.6h-6.5c0,7.6,5,13.9,12,18.1c7,4.3,16.5,6.8,26.8,6.8
		V141.7z M203.8,123.2c0,4.4-3,9-8.8,12.6c-5.8,3.6-14.1,5.9-23.4,5.9v6.5c10.3,0,19.8-2.5,26.8-6.8c7-4.3,12-10.6,12-18.1H203.8z
		 M203.8,117.8v5.4h6.5v-5.4H203.8z"/>
	<path class="st10" d="M207,123.2c0,12-15.9,21.7-35.5,21.7s-35.5-9.7-35.5-21.7v-5.5h71V123.2z"/>
	<path class="st11" d="M207,117.7c0,12-15.9,21.7-35.5,21.7c-19.6,0-35.5-9.7-35.5-21.7c0-12,15.9-21.7,35.5-21.7
		C191.1,96,207,105.7,207,117.7z"/>
	<defs>
		<filter id="Adobe_OpacityMaskFilter_4_" filterUnits="userSpaceOnUse" x="82.7" y="38.5" width="74.5" height="63">
			<feColorMatrix  type="matrix" values="1 0 0 0 0  0 1 0 0 0  0 0 1 0 0  0 0 0 1 0"/>
		</filter>
	</defs>
	<mask maskUnits="userSpaceOnUse" x="82.7" y="38.5" width="74.5" height="63" id="path-20-outside-5_1_" class="st1">
		
			<rect x="71.5" y="25.5" style="clip-path:url(#SVGID_2_);fill:#FFFFFF;filter:url(#Adobe_OpacityMaskFilter_4_);" width="96.9" height="88.9"/>
		<path style="clip-path:url(#SVGID_2_);fill-rule:evenodd;clip-rule:evenodd;" d="M152.1,54.5C152.1,54.5,152.1,54.6,152.1,54.5
			c6,10.5-2.9,26.8-19.9,36.6c-17,9.8-35.6,9.3-41.6-1l0,0l-2.8-4.8c-6-10.4,2.9-26.8,19.9-36.6c17-9.8,35.6-9.3,41.6,1L152.1,54.5z
			"/>
	</mask>
	<path class="st17" d="M152.1,54.5l-2.8,1.6l0,0l0,0L152.1,54.5z M90.6,90.1L89,87.3l2.8-1.6l1.6,2.8L90.6,90.1z M90.6,90.1l1.6,2.8
		l-2.8,1.6l-1.6-2.8L90.6,90.1z M87.9,85.3l2.8-1.6L87.9,85.3z M149.4,49.8l2.8-1.6L149.4,49.8z M149.3,56.2
		C149.3,56.2,149.3,56.2,149.3,56.2l5.6-3.3c0,0,0,0.1,0.1,0.1L149.3,56.2z M130.6,88.3c8.1-4.7,14.1-10.8,17.3-16.8
		c3.3-6.1,3.6-11.5,1.4-15.3L155,53c3.8,6.5,2.6,14.5-1.3,21.7c-3.9,7.2-10.9,14.2-19.8,19.3L130.6,88.3z M93.4,88.5
		c2.2,3.8,7,6.3,14,6.5c6.8,0.2,15.2-2,23.2-6.6l3.2,5.6c-8.9,5.2-18.4,7.7-26.6,7.5c-8.2-0.2-15.6-3.2-19.4-9.7L93.4,88.5z
		 M89,87.3L89,87.3l3.2,5.6l0,0L89,87.3z M90.7,83.7l2.8,4.8l-5.6,3.2L85,86.9L90.7,83.7z M109.4,51.6c-8.1,4.7-14.1,10.8-17.3,16.8
		c-3.3,6.1-3.6,11.5-1.4,15.3L85,86.9c-3.8-6.5-2.6-14.5,1.3-21.7c3.9-7.2,10.9-14.2,19.8-19.3L109.4,51.6z M146.6,51.4
		c-2.2-3.8-7-6.3-14-6.5c-6.8-0.2-15.2,2-23.2,6.6l-3.2-5.6c8.9-5.2,18.4-7.7,26.6-7.5c8.2,0.2,15.6,3.2,19.4,9.7L146.6,51.4z
		 M149.3,56.1l-2.7-4.7l5.6-3.2l2.7,4.7L149.3,56.1z"/>
	<path class="st11" d="M149.4,49.8c-6-10.4-24.6-10.8-41.6-1c-17,9.8-25.9,26.2-19.9,36.6l2.8,4.8l61.5-35.5L149.4,49.8z"/>
	<path class="st10" d="M152.1,54.6c-6-10.4-24.6-10.8-41.6-1c-17,9.8-25.9,26.2-19.9,36.6c6,10.4,24.6,10.8,41.6,1
		C149.2,81.3,158.1,65,152.1,54.6z"/>
	<defs>
		<filter id="Adobe_OpacityMaskFilter_5_" filterUnits="userSpaceOnUse" x="8.4" y="6.3" width="69.3" height="69.3">
			<feColorMatrix  type="matrix" values="1 0 0 0 0  0 1 0 0 0  0 0 1 0 0  0 0 0 1 0"/>
		</filter>
	</defs>
	<mask maskUnits="userSpaceOnUse" x="8.4" y="6.3" width="69.3" height="69.3" id="path-24-outside-6_1_" class="st1">
		
			<rect x="-5.1" y="-7.1" style="clip-path:url(#SVGID_2_);fill:#FFFFFF;filter:url(#Adobe_OpacityMaskFilter_5_);" width="96.2" height="96.2"/>
		<path style="clip-path:url(#SVGID_2_);fill-rule:evenodd;clip-rule:evenodd;" d="M15.9,64.1C15.9,64.1,15.9,64.1,15.9,64.1
			c-8.5-8.5-4.1-26.6,9.8-40.5c13.9-13.9,32-18.2,40.5-9.8c0,0,0,0,0,0l3.9,3.9c8.5,8.5,4.1,26.6-9.8,40.5s-32,18.2-40.5,9.8
			L15.9,64.1z"/>
	</mask>
	<path class="st19" d="M66.2,13.9l-2.3,2.3l0,0L66.2,13.9z M18.2,61.8c0.1,0.1,0.2,0.2,0.3,0.3c0,0,0.1,0.1,0.1,0.1
		c0,0,0,0.1,0.1,0.1c0,0,0,0.1,0,0.1c0,0,0,0,0,0.1c0,0,0,0,0,0c0,0,0,0,0,0c0,0,0,0,0,0c0,0,0,0,0,0l0,0l0,0l0,0c0,0,0,0,0,0
		c0,0,0,0,0,0c0,0,0,0,0,0c0,0,0,0,0-0.1c0,0,0,0,0-0.1c0,0,0-0.1-0.1-0.1s-0.1-0.1-0.1-0.1C18.4,62,18.3,61.9,18.2,61.8l-4.6,4.6
		c-0.1-0.1-0.2-0.2-0.3-0.3c0,0-0.1-0.1-0.1-0.1c0,0,0-0.1-0.1-0.1c0,0,0-0.1,0-0.1c0,0,0,0,0-0.1c0,0,0,0,0,0c0,0,0,0,0,0
		c0,0,0,0,0,0c0,0,0,0,0,0c0,0,0,0,0,0l0,0h0c0,0,0,0,0,0c0,0,0,0,0,0c0,0,0,0,0,0c0,0,0,0,0,0.1c0,0,0,0,0,0.1c0,0,0,0.1,0.1,0.1
		c0,0,0.1,0.1,0.1,0.1c0.1,0.1,0.1,0.2,0.3,0.3L18.2,61.8z M28,25.9C21.4,32.5,17.2,40,15.6,46.7c-1.6,6.7-0.5,12,2.6,15.2l-4.6,4.6
		c-5.3-5.3-6.3-13.3-4.4-21.3c1.9-8,6.8-16.5,14.1-23.8L28,25.9z M63.9,16.2c-3.1-3.1-8.4-4.3-15.2-2.6c-6.7,1.6-14.1,5.8-20.7,12.4
		l-4.6-4.6c7.3-7.3,15.8-12.2,23.8-14.1c7.9-1.9,15.9-1,21.3,4.4L63.9,16.2z M63.9,16.2C63.9,16.2,63.9,16.2,63.9,16.2l4.6-4.6
		c0,0,0,0,0,0L63.9,16.2z M67.8,20.1l-3.9-3.9l4.6-4.6l3.9,3.9L67.8,20.1z M58,56c6.6-6.6,10.8-14.1,12.4-20.7
		c1.6-6.7,0.5-12-2.6-15.2l4.6-4.6c5.3,5.3,6.3,13.3,4.4,21.3c-1.9,8-6.8,16.5-14.1,23.8L58,56z M22.1,65.7
		c3.1,3.1,8.4,4.3,15.2,2.6C43.9,66.8,51.4,62.5,58,56l4.6,4.6c-7.3,7.3-15.8,12.2-23.8,14.1c-7.9,1.9-15.9,1-21.3-4.4L22.1,65.7z
		 M18.2,61.8l3.9,3.9l-4.6,4.6l-3.9-3.9L18.2,61.8z"/>
	<path class="st10" d="M19.8,68c8.5,8.5,26.6,4.1,40.5-9.8s18.2-32,9.8-40.5l-3.9-3.9L15.9,64.1L19.8,68z"/>
	<path class="st11" d="M15.9,64.1c8.5,8.5,26.6,4.1,40.5-9.8s18.2-32,9.8-40.5c-8.5-8.5-26.6-4.1-40.5,9.8
		C11.8,37.5,7.4,55.6,15.9,64.1z"/>
</g>
<path class="st20" d="M186.3,101.9c-1.6-15.4,14.6-34.7,14.6-34.7c7.1,2.9,15.7,5.5,15.7,5.5c-14.2,10.7-12.2,33.6-12.2,33.6
	C195.7,103.5,186.3,101.9,186.3,101.9z"/>
<path class="st21" d="M217.9,48c7.6,13.5,6.6,37.5,6.6,37.5c-7.6,0.1-15.4,8.2-15.4,8.2c-2.2-22.6-10-41.9-10-41.9
	C208.3,50.9,217.9,48,217.9,48z"/>
<g>
	<path class="st22" d="M216.1,75.6l-0.7-1.7c-1.2,0.4-2.5,0.6-3.3,0.5l0-1.3c0.9,0.1,2,0,3.1-0.4c1.4-0.6,2.1-1.6,1.7-2.6
		c-0.4-0.9-1.4-1.2-3-1.1c-2.3,0.1-3.8-0.1-4.4-1.6c-0.6-1.4,0.2-2.9,1.9-3.9l-0.7-1.7l1.2-0.5l0.7,1.6c1.2-0.4,2.1-0.5,2.8-0.4
		l0,1.3c-0.5,0-1.5-0.1-2.7,0.4c-1.5,0.6-1.8,1.6-1.5,2.3c0.4,0.9,1.3,1,3.2,0.9c2.3-0.1,3.7,0.4,4.3,1.9c0.5,1.3,0,3-2,4.1l0.7,1.8
		L216.1,75.6z"/>
</g>
<path class="st21" d="M199.8,60.1c4.7,14.8-7.3,36.9-7.3,36.9c-7.5-1.4-16.5-2.2-16.5-2.2c12.6-20.4,5.2-35.4,5.2-35.4
	C190.4,60.5,199.8,60.1,199.8,60.1z"/>
<path class="st21" d="M145.7,83.7c11.1,10.9,36.2,10.3,36.2,10.3c2.1-7.3,5.5-15.7,5.5-15.7c-23.9,2-33.9-11.5-33.9-11.5
	C150.3,75.4,145.7,83.7,145.7,83.7z"/>
<g>
	<path class="st22" d="M192.8,84.6l0.6-1.7c-1.2-0.4-2.3-1.1-2.9-1.8l0.9-1c0.6,0.6,1.5,1.3,2.7,1.7c1.4,0.5,2.6,0.1,3-0.9
		c0.3-1-0.3-1.8-1.6-2.8c-1.8-1.4-2.9-2.6-2.4-4.1c0.5-1.4,2-2.1,3.9-1.8l0.6-1.7l1.3,0.4l-0.5,1.7c1.2,0.4,1.9,1,2.4,1.4l-0.9,1
		c-0.4-0.3-1.1-1-2.4-1.4c-1.6-0.5-2.4,0.1-2.6,0.8c-0.3,0.9,0.3,1.6,1.9,2.8c1.9,1.4,2.6,2.6,2.1,4.2c-0.4,1.4-2,2.3-4.1,1.9
		l-0.6,1.8L192.8,84.6z"/>
</g>
<path class="st21" d="M188.1,50.9c-14.6,5.1-25.2,27.9-25.2,27.9c5.6,5.2,11.7,11.9,11.7,11.9c8.8-22.3,25.2-25.3,25.2-25.3
	C193.5,58.7,188.1,50.9,188.1,50.9z"/>
<path class="st21" d="M214.4,67.2c-0.5,15.5-13.8,35.5-13.8,35.5c-6.6-3.8-17.4-1-17.4-1c9.8-20.5,13.2-41,13.2-41
	C204.6,64.6,214.4,67.2,214.4,67.2z"/>
<path class="st21" d="M172.5,53.1c-12.5,9.2-15.9,34.1-15.9,34.1c6.9,3.3,14.7,7.9,14.7,7.9c1.8-23.9,16.6-31.6,16.6-31.6
	C180,59,172.5,53.1,172.5,53.1z"/>
<g>
	<path class="st22" d="M165,78.6l0.9-1.3c-0.9-0.6-1.6-1.5-2-2.2l1-0.6c0.3,0.7,1,1.5,1.8,2.1c1.1,0.7,2.2,0.7,2.7,0
		c0.5-0.7,0.2-1.6-0.7-2.7c-1.2-1.6-1.8-2.9-1-4c0.7-1.1,2.2-1.3,3.8-0.5l0.9-1.3l1,0.6l-0.9,1.3c0.9,0.7,1.4,1.3,1.7,1.8l-1,0.6
		c-0.2-0.4-0.6-1.1-1.6-1.8c-1.2-0.8-2-0.5-2.4,0c-0.5,0.7-0.1,1.4,0.9,2.8c1.2,1.6,1.5,2.9,0.7,4c-0.7,1-2.2,1.4-3.9,0.6l-0.9,1.4
		L165,78.6z"/>
</g>
<path class="st21" d="M141.4,103.6c6.9-22.4,5.1-42.3,5.1-42.3c7.2,8.6,19,5,19,5c-6,19.2-0.7,38.3-0.7,38.3
	C154.5,101.2,141.4,103.6,141.4,103.6z"/>
<g>
	<path class="st22" d="M199.2,90.9l0.3-1.6c-1.1-0.2-2.1-0.8-2.6-1.3l0.7-0.9c0.6,0.5,1.5,1,2.5,1.2c1.3,0.3,2.3-0.2,2.5-1.1
		c0.2-0.9-0.4-1.5-1.7-2.3c-1.7-1-2.7-2-2.4-3.3c0.3-1.3,1.6-2,3.3-1.9l0.3-1.6l1.1,0.2l-0.3,1.5c1.1,0.3,1.8,0.7,2.2,1l-0.7,0.9
		c-0.3-0.3-1-0.8-2.2-1c-1.4-0.3-2.1,0.3-2.2,0.9c-0.2,0.8,0.4,1.4,1.9,2.3c1.7,1.1,2.5,2.1,2.2,3.4c-0.3,1.2-1.5,2.2-3.4,2
		l-0.3,1.6L199.2,90.9z"/>
</g>
<g>
	<path class="st22" d="M148.6,85.3l0.2-1.6c-1.1-0.1-2.2-0.5-2.8-1l0.6-1c0.6,0.5,1.6,0.9,2.6,1c1.3,0.1,2.3-0.4,2.4-1.3
		c0.1-0.9-0.6-1.5-1.9-2.1c-1.8-0.8-2.9-1.7-2.8-3.1c0.1-1.3,1.3-2.2,3.1-2.2l0.2-1.6l1.1,0.1l-0.2,1.5c1.1,0.2,1.8,0.5,2.3,0.8
		l-0.6,1c-0.4-0.2-1.1-0.7-2.3-0.8c-1.4-0.2-2,0.5-2.1,1.1c-0.1,0.8,0.6,1.3,2.1,2c1.8,0.9,2.7,1.8,2.6,3.2
		c-0.1,1.2-1.3,2.3-3.2,2.4l-0.2,1.6L148.6,85.3z"/>
</g>
<path class="st23" d="M178.1,83.6L140.5,100l-1.4,45.5l5,13.8l83,11.5h9.6l5.2-4.8v-4.6c0,0-8.3-4-9-8.3c-0.1-0.5,0.5-2.1,0.5-2.1
	l-0.2-40.8l-3.8-16L178.1,83.6z"/>
<path class="st21" d="M95.8,18c15.4-1.5,37,9,37,9c-2.9,7.1,1.3,17.4,1.3,17.4c-21.7-12.3-42.4-7.7-42.4-7.7
	C94.6,27.9,95.8,18,95.8,18z"/>
<path class="st21" d="M60.8,18.1c-10,11.8-32.8,19.2-32.8,19.2c-2.8-7.1-13.1-11.6-13.1-11.6c20.4-10,35.8-24,35.8-24
	C54.7,10.1,60.8,18.1,60.8,18.1z"/>
<g>
	<path class="st22" d="M34.5,25.4l1.2-1c-0.7-0.8-1.2-1.9-1.3-2.6l1.1-0.3c0.1,0.8,0.5,1.7,1.2,2.5c0.8,1,1.9,1.3,2.6,0.7
		c0.7-0.6,0.6-1.5,0.1-2.8c-0.7-1.9-0.9-3.2,0.2-4.1c1-0.8,2.5-0.6,3.8,0.5l1.2-1l0.7,0.9l-1.2,1c0.7,0.9,1,1.6,1.1,2.2l-1.1,0.3
		c-0.1-0.4-0.3-1.2-1.1-2.2c-0.9-1.1-1.8-1.1-2.3-0.6c-0.6,0.5-0.5,1.3,0.1,2.9c0.7,1.9,0.7,3.2-0.4,4.1c-1,0.8-2.5,0.8-4-0.5
		l-1.3,1.1L34.5,25.4z"/>
</g>
<g>
	<path class="st22" d="M119.4,30.5l-1.7-0.4c-0.3,1.1-0.8,2.2-1.3,2.8l-1-0.7c0.5-0.6,1.1-1.5,1.3-2.6c0.3-1.4-0.2-2.4-1.1-2.6
		c-0.9-0.2-1.6,0.4-2.4,1.8c-1.1,1.8-2.1,2.9-3.5,2.6c-1.4-0.3-2.2-1.6-2-3.5l-1.7-0.4l0.3-1.2l1.6,0.3c0.3-1.1,0.7-1.9,1.1-2.4
		l1,0.7c-0.3,0.4-0.8,1.1-1.1,2.3c-0.3,1.5,0.3,2.2,1,2.3c0.9,0.2,1.4-0.4,2.4-2c1.1-1.8,2.2-2.7,3.6-2.3c1.3,0.3,2.3,1.6,2.1,3.6
		l1.7,0.4L119.4,30.5z"/>
</g>
<path class="st24" d="M188.4,82.6c0,0-29.1-6.1-35.6-9.2c-6.5-3.1-8,0.2-8.2,1.2s1.6,2.7,0,7.4c-1.6,4.7-4.4,7.3-7.1,9.4
	c-5.9,4.7-2,12.3,3.9,12.1c5.6-0.1,7.6-2.3,12.3-4.5c1.9-0.9,4.3-1.8,7.5-2.5"/>
<path class="st24" d="M153.8,99c17.1,0,17.5,9.2,31.2,9.2c10.3,0,24.5-10.9,33.1-10.1"/>
<path class="st24" d="M210.1,99.6c0,0,12.5,7.9,21.5,5.7c9-2.2,3.1-11.3,0-13.7c-4.9-3.8-1.8-7.8-5.1-13.7c-2.7-4.7-11,5.4-14.7,3.9
	c-17.2-6.9-18.9,1-30.2,2.9"/>
<path class="st25" d="M165.4,91.2c-2.4-1.9-8.2-0.3-10.2,0.6c-14,6.3-9.5-2.5-9.5-2.5"/>
<path class="st24" d="M141.5,103.6c0,0-16.1,34.9,1.8,52.3"/>
<path class="st24" d="M140.8,153.1c0,0-16,23.1,8.7,16.3c0,0,8-2.9,25.5,2.5s24.3-1.4,38.8-1.4c14.5,0,21,0.6,21,0.6"/>
<path class="st26" d="M233.4,151.5c0,0,1.5,7,5.3,8.4c5.3,2,4.6,10.3-3.9,11.3"/>
<path class="st25" d="M155.2,157.5c0,0,12.6,14,45.9,14.6"/>
<path class="st25" d="M151.3,163.6c0,0,11.8,6,30.4,9.9"/>
<path class="st25" d="M181.7,95.8c0,0,14.3-11.9,22.9-8c8.6,3.9,8.6,6.2,8.6,6.2s-13.3-2.4-20.8,5.9"/>
<path class="st27" d="M231.6,105.3c0,0,11.8,29.3-2.1,55.4c-1.8,3.4,0.3,0.9-2.4,4.1"/>
<path class="st28" d="M116.9,88c-0.2-1.4-2.2-1.4-2.4,0l-1.2,8.2c-0.1,0.5-0.5,0.9-1,1l-8.2,1.2c-1.4,0.2-1.4,2.2,0,2.4l8.2,1.2
	c0.5,0.1,0.9,0.5,1,1l1.2,8.2c0.2,1.4,2.2,1.4,2.4,0l1.2-8.2c0.1-0.5,0.5-0.9,1-1l8.2-1.2c1.4-0.2,1.4-2.2,0-2.4l-8.2-1.2
	c-0.5-0.1-0.9-0.5-1-1L116.9,88z"/>
<path class="st28" d="M172.2,15c0.2-1.4,2.2-1.4,2.4,0l0.4,2.7c0.1,0.5,0.5,0.9,1,1l2.7,0.4c1.4,0.2,1.4,2.2,0,2.4l-2.7,0.4
	c-0.5,0.1-0.9,0.5-1,1l-0.4,2.7c-0.2,1.4-2.2,1.4-2.4,0l-0.4-2.7c-0.1-0.5-0.5-0.9-1-1l-2.7-0.4c-1.4-0.2-1.4-2.2,0-2.4l2.7-0.4
	c0.5-0.1,0.9-0.5,1-1L172.2,15z"/>
</svg>
